<svg version="1.1" id="Layer_1" xmlns="http://www.w3.org/2000/svg" xmlns:xlink="http://www.w3.org/1999/xlink" x="0px" y="0px"
	 width="100%" viewBox="0 0 256 256" enable-background="new 0 0 256 256" xml:space="preserve">
<path fill="#000000" opacity="1.000000" stroke="none" 
	d="
M141.000000,257.000000 
	C94.000000,257.000000 47.500004,257.000000 1.000006,257.000000 
	C1.000004,171.666672 1.000004,86.333351 1.000002,1.000018 
	C86.333321,1.000012 171.666641,1.000012 257.000000,1.000006 
	C257.000000,86.333313 257.000000,171.666626 257.000000,256.999969 
	C218.500000,257.000000 180.000000,257.000000 141.000000,257.000000 
M173.689621,239.119049 
	C220.868927,219.996368 254.270325,169.912933 246.806213,113.520683 
	C239.511887,58.411274 194.173279,14.519268 139.314743,10.553625 
	C98.414894,7.597037 64.231178,21.930143 37.424427,53.237881 
	C35.690853,55.262531 34.115822,57.294628 31.066372,57.618397 
	C29.069759,57.830383 27.997829,59.202717 28.399668,61.578476 
	C29.198656,66.302238 27.039137,69.564850 22.759199,71.405075 
	C20.893915,72.207085 20.033894,73.373749 20.773041,75.276878 
	C21.811338,77.950264 20.554771,80.146759 19.573202,82.429451 
	C10.517006,103.490143 8.078362,125.471794 11.559329,147.954224 
	C23.116623,222.599106 102.516190,267.489258 173.689621,239.119049 
z"/>
<path fill="#000000" opacity="1.000000" stroke="none" 
	d="
M104.371353,67.580940 
	C111.231995,74.423218 117.825500,81.025108 124.427063,87.618927 
	C129.019028,92.205513 129.034821,92.211411 133.779480,87.472359 
	C140.498718,80.761063 146.991516,73.806747 153.952530,67.357185 
	C168.386261,53.983986 190.899139,59.917065 196.624313,78.575584 
	C199.666290,88.489517 197.188141,97.361816 190.030807,104.786568 
	C183.556168,111.503113 177.034500,118.191948 170.213409,124.549477 
	C166.755844,127.772064 166.461945,129.944519 170.054474,133.324554 
	C177.330566,140.170242 184.526566,147.155457 191.177155,154.599899 
	C203.910004,168.852646 197.676407,191.041245 179.526215,196.591278 
	C169.405457,199.686066 160.421326,197.166138 152.894318,189.821640 
	C145.979065,183.074020 139.135651,176.245316 132.472565,169.250427 
	C129.867996,166.516174 128.070465,166.658203 125.539810,169.281494 
	C118.947166,176.115433 112.188354,182.791351 105.415688,189.448776 
	C94.390724,200.286240 78.123100,200.603348 67.818718,190.256699 
	C57.458710,179.854156 57.733932,163.646927 68.547165,152.652130 
	C75.206131,145.881393 81.899750,139.139786 88.750610,132.565186 
	C91.381378,130.040497 91.539200,128.210388 88.836266,125.612015 
	C81.751259,118.801041 74.771896,111.872337 67.946159,104.801613 
	C60.467239,97.054260 58.250729,87.784523 61.699120,77.610298 
	C65.183220,67.330719 72.788918,61.623466 83.508141,60.333733 
	C91.407822,59.383247 98.233803,62.080723 104.371353,67.580940 
M93.505806,68.815025 
	C90.560974,67.390167 87.426140,67.156578 84.237839,67.423927 
	C78.257980,67.925369 70.950012,73.310875 70.864082,77.613747 
	C70.820923,79.775269 70.667381,81.326447 68.743950,82.736870 
	C66.854698,84.122215 66.838913,87.184929 68.586884,87.791870 
	C73.165436,89.381638 74.457314,93.371170 75.809799,96.877144 
	C78.585907,104.073540 83.162621,109.755394 88.538017,115.018616 
	C91.630394,118.046455 94.463646,121.343895 97.616928,124.303268 
	C101.260010,127.722328 100.851173,130.748199 97.476044,134.052521 
	C90.456245,140.925079 83.540359,147.903946 76.598076,154.855408 
	C71.345772,160.114670 69.169334,171.493622 72.020988,178.482864 
	C73.258995,181.517151 74.834587,184.086472 78.427521,184.830093 
	C80.039688,185.163773 81.625595,186.002609 82.571915,187.453339 
	C84.739716,190.776550 87.826515,190.514130 90.998726,189.693115 
	C95.149429,188.618851 98.471169,186.149323 101.460724,183.154007 
	C108.753990,175.846680 116.054649,168.546463 123.394272,161.285767 
	C128.324463,156.408585 129.491760,156.385880 134.515244,161.139374 
	C138.866989,165.257263 143.148102,169.244125 149.237167,170.962601 
	C152.821045,171.974045 156.946457,173.237289 158.840408,176.812515 
	C160.833939,180.575699 163.851074,183.325699 166.351624,186.566132 
	C169.540482,190.698517 173.032730,190.954453 177.327576,189.552246 
	C191.078339,185.062851 195.151535,169.545425 185.123352,158.623276 
	C177.470276,150.287979 169.253403,142.471283 161.316055,134.395645 
	C156.413071,129.407257 156.415939,128.552902 161.422119,123.448616 
	C169.117859,115.602028 176.895599,107.835617 184.566177,99.964653 
	C189.665222,94.732376 192.124756,88.547508 189.973984,81.283722 
	C185.893570,67.502998 170.051895,62.791962 159.275925,72.450058 
	C150.356873,80.443871 141.959000,89.030739 133.520584,97.543541 
	C130.174133,100.919479 127.547829,100.828209 124.302521,97.480286 
	C117.117348,90.067924 109.724915,82.856583 102.424690,75.555573 
	C99.945457,73.076073 97.425224,70.656006 93.505806,68.815025 
z"/>
</svg>