<svg version="1.1" id="Layer_1" xmlns="http://www.w3.org/2000/svg" xmlns:xlink="http://www.w3.org/1999/xlink" x="0px" y="0px"
	 width="100%" viewBox="0 0 500 500" enable-background="new 0 0 500 500" xml:space="preserve">
<path fill="#BBBBBB" opacity="1.000000" stroke="none" 
	d="
M21.000000,501.000000 
	C14.335221,501.000000 7.670443,501.000000 1.002832,501.000000 
	C1.000000,500.835266 1.000000,500.670532 1.000000,500.505798 
	C1.000000,334.052948 1.000000,167.600098 1.000000,1.073627 
	C167.570358,1.073627 334.140747,1.073627 500.855591,1.073627 
	C500.855591,167.666565 500.855591,334.333282 500.855591,501.000000 
	C494.265747,501.000000 487.600922,501.000000 480.447205,500.615906 
	C469.726990,467.248169 452.776794,438.013611 429.734467,412.455017 
	C406.924011,387.153656 379.909851,367.361450 348.547028,353.781769 
	C340.467285,350.283356 332.184357,347.254333 324.066040,343.673157 
	C325.659698,341.858032 327.039185,340.187744 328.726288,338.930115 
	C347.918976,324.623749 362.551544,306.412262 373.271210,285.228638 
	C391.344025,249.514114 397.861969,211.706726 392.096161,171.929031 
	C385.670166,127.597015 367.321777,89.505165 332.184875,60.904030 
	C304.604004,38.453423 272.951416,27.975998 236.991409,31.838022 
	C208.975433,34.846874 184.887543,46.527874 163.976273,64.726128 
	C140.261642,85.364014 124.813972,111.671181 115.499680,141.443481 
	C107.830902,165.956070 105.336441,191.119003 107.867500,216.842819 
	C110.551025,244.116135 118.513077,269.547577 132.172577,293.249756 
	C141.834442,310.015228 154.247665,324.421844 169.192383,336.695923 
	C171.943283,338.955231 174.408295,341.562714 176.728989,344.233795 
	C175.372665,344.884705 174.309555,345.361786 173.210114,345.730591 
	C126.443466,361.418365 88.244095,389.104187 58.350498,428.214355 
	C41.549667,450.195160 28.764095,474.333649 21.000000,501.000000 
z"/>
<path fill="#7DA7D9" opacity="1.000000" stroke="none" 
	d="
M323.994751,344.009674 
	C332.184357,347.254333 340.467285,350.283356 348.547028,353.781769 
	C379.909851,367.361450 406.924011,387.153656 429.734467,412.455017 
	C452.776794,438.013611 469.726990,467.248169 479.979156,500.615906 
	C327.312439,501.000000 174.624878,501.000000 21.468658,501.000000 
	C28.764095,474.333649 41.549667,450.195160 58.350498,428.214355 
	C88.244095,389.104187 126.443466,361.418365 173.210114,345.730591 
	C174.309555,345.361786 175.372665,344.884705 177.103638,344.179260 
	C179.491486,343.576935 181.228409,343.253510 183.043594,343.275085 
	C184.013046,344.542236 184.753326,345.719574 185.817612,346.349121 
	C209.163910,360.158569 234.074539,366.803772 261.451111,364.204956 
	C278.657196,362.571625 294.588013,357.559113 309.685974,349.546143 
	C312.747009,347.921539 315.238678,345.224060 318.252075,342.995728 
	C318.683197,342.945343 318.855072,342.920441 319.382019,342.983521 
	C321.156311,343.384186 322.575531,343.696930 323.994751,344.009674 
z"/>
<path fill="#B4B6B7" opacity="1.000000" stroke="none" 
	d="
M324.066040,343.673157 
	C322.575531,343.696930 321.156311,343.384186 319.474976,342.671417 
	C319.766754,341.672150 320.237061,340.956299 320.886780,340.490814 
	C335.553894,329.982544 348.428772,317.637512 358.620026,302.716888 
	C362.209900,297.461090 364.897034,291.588654 367.998230,285.749268 
	C368.000153,285.500732 368.003540,285.003662 368.331177,284.905518 
	C369.695374,283.359863 371.058838,282.045990 371.714050,280.442657 
	C375.276978,271.724335 379.667816,263.180328 381.889313,254.114578 
	C385.647797,238.776459 388.044861,223.101547 390.830139,207.535278 
	C391.016022,206.496582 389.651001,205.180405 389.007141,203.662170 
	C389.007080,202.889481 389.007202,202.447922 389.346313,201.869385 
	C391.603058,199.270493 391.972504,196.964310 389.007385,194.662445 
	C389.007416,193.889725 389.007355,193.448227 389.353058,192.865112 
	C389.806305,189.743668 390.116760,186.754990 389.988068,183.785370 
	C389.203613,165.690384 384.549072,148.432663 378.348816,131.544617 
	C371.577393,113.100731 361.686523,96.412262 348.828674,81.618080 
	C344.931366,77.133850 339.681335,73.825310 334.761719,69.811737 
	C330.001221,65.943977 325.716125,61.986099 321.027771,58.583916 
	C294.248657,39.151138 264.504974,31.837545 231.697952,36.785149 
	C216.444901,39.085457 202.130066,43.713608 188.738297,52.045479 
	C187.596939,52.707653 186.801163,53.360184 186.002380,54.006203 
	C185.999390,53.999687 186.011292,54.006645 185.639496,54.022934 
	C183.471207,54.840252 181.516891,55.403984 179.901962,56.478027 
	C156.880157,71.789162 140.204346,92.564865 128.149094,117.203835 
	C111.741837,150.737564 106.675507,186.294357 111.252083,223.032745 
	C115.694466,258.693939 129.675140,290.528046 153.439514,317.743225 
	C155.707397,320.340424 159.116135,321.941406 162.062683,324.341125 
	C166.421631,328.449951 170.713135,332.222534 175.252991,335.996948 
	C175.501343,335.998779 175.998169,336.002441 176.068253,336.337036 
	C178.448898,338.455780 180.759460,340.239929 183.045502,342.250793 
	C183.020996,342.477509 182.965332,342.930115 182.965332,342.930115 
	C181.228409,343.253510 179.491486,343.576935 177.379913,343.954895 
	C174.408295,341.562714 171.943283,338.955231 169.192383,336.695923 
	C154.247665,324.421844 141.834442,310.015228 132.172577,293.249756 
	C118.513077,269.547577 110.551025,244.116135 107.867500,216.842819 
	C105.336441,191.119003 107.830902,165.956070 115.499680,141.443481 
	C124.813972,111.671181 140.261642,85.364014 163.976273,64.726128 
	C184.887543,46.527874 208.975433,34.846874 236.991409,31.838022 
	C272.951416,27.975998 304.604004,38.453423 332.184875,60.904030 
	C367.321777,89.505165 385.670166,127.597015 392.096161,171.929031 
	C397.861969,211.706726 391.344025,249.514114 373.271210,285.228638 
	C362.551544,306.412262 347.918976,324.623749 328.726288,338.930115 
	C327.039185,340.187744 325.659698,341.858032 324.066040,343.673157 
z"/>
<path fill="#759ED1" opacity="1.000000" stroke="none" 
	d="
M183.043594,343.275085 
	C182.965332,342.930115 183.020996,342.477509 183.325287,342.202179 
	C184.104568,341.637207 184.579544,341.347565 185.450043,341.043243 
	C186.906097,341.042297 187.966599,341.056030 189.120789,341.390442 
	C190.032349,342.511688 190.726791,343.525330 191.686401,344.081360 
	C210.525528,354.997437 231.095261,359.952637 252.616425,359.668121 
	C262.917877,359.531891 273.306763,357.117401 283.429016,354.759857 
	C294.093872,352.275909 304.293396,348.211823 313.225708,341.119171 
	C313.640625,341.077423 313.807007,341.066406 314.226135,341.259216 
	C315.316284,341.636261 316.153625,341.809418 317.180634,342.132874 
	C317.613220,342.499298 317.820740,342.745300 317.992828,343.021179 
	C315.238678,345.224060 312.747009,347.921539 309.685974,349.546143 
	C294.588013,357.559113 278.657196,362.571625 261.451111,364.204956 
	C234.074539,366.803772 209.163910,360.158569 185.817612,346.349121 
	C184.753326,345.719574 184.013046,344.542236 183.043594,343.275085 
z"/>
<path fill="#ADB0B4" opacity="1.000000" stroke="none" 
	d="
M318.252075,342.995697 
	C317.820740,342.745300 317.613220,342.499298 317.251251,341.795868 
	C318.220612,340.124512 319.131927,338.681488 320.425232,337.797028 
	C331.553772,330.186676 341.437347,321.203827 349.718567,310.594513 
	C353.537659,305.701782 356.591736,300.211853 360.046356,294.710876 
	C360.400818,293.953125 360.701630,293.477173 361.340820,292.929504 
	C363.784882,290.571106 365.890594,288.284424 367.996338,285.997772 
	C364.897034,291.588654 362.209900,297.461090 358.620026,302.716888 
	C348.428772,317.637512 335.553894,329.982544 320.886780,340.490814 
	C320.237061,340.956299 319.766754,341.672150 319.119934,342.583496 
	C318.855072,342.920441 318.683197,342.945343 318.252075,342.995697 
z"/>
<path fill="#7DA7D9" opacity="1.000000" stroke="none" 
	d="
M189.083862,52.035847 
	C202.130066,43.713608 216.444901,39.085457 231.697952,36.785149 
	C264.504974,31.837545 294.248657,39.151138 321.027771,58.583916 
	C325.716125,61.986099 330.001221,65.943977 334.920227,70.101990 
	C340.304688,76.116257 345.499054,81.468437 350.125763,87.273071 
	C360.416595,100.183975 367.894836,114.731697 374.039429,130.382111 
	C379.531281,146.743286 383.315430,163.068146 384.058350,180.439163 
	C386.600403,198.781693 383.309113,216.353836 380.742126,234.277374 
	C377.539185,243.742554 374.870392,253.030594 371.466675,262.040985 
	C368.769867,269.179993 365.171967,275.978607 361.699097,283.128479 
	C360.765564,284.277710 360.061279,285.198517 359.455566,286.180145 
	C349.767395,301.880737 337.975800,315.712555 323.029877,326.650513 
	C317.158630,330.947327 310.996338,334.846497 304.604645,339.000854 
	C302.378510,339.787079 300.473267,340.407928 298.656342,341.225128 
	C274.183258,352.232361 248.903214,355.459808 222.822571,348.339600 
	C213.715073,345.853210 204.953125,342.101196 195.836731,338.655396 
	C195.125687,337.968628 194.661377,337.460999 194.089661,337.152130 
	C173.644165,326.105499 157.550461,310.372498 144.751129,291.151367 
	C140.999542,285.517487 137.606995,279.644501 133.982086,273.523529 
	C129.472244,260.234192 125.090767,247.280869 120.503204,234.400955 
	C119.992065,232.965897 118.308968,231.948273 117.169380,230.483154 
	C117.147400,229.889206 117.125412,229.549179 117.111740,229.171906 
	C117.120041,229.134659 117.087677,229.065552 117.405670,228.978943 
	C117.839989,227.558838 117.956322,226.225342 118.071487,224.466614 
	C117.361877,211.025070 116.653427,198.008759 115.959961,184.540314 
	C117.173080,175.274750 117.563911,166.254623 119.755447,157.695541 
	C123.185585,144.299133 127.833397,131.214478 132.134827,117.691757 
	C141.271652,99.235184 152.394409,82.615829 167.541351,69.008507 
	C173.434402,63.714466 179.839462,58.990368 186.011292,54.006645 
	C186.011292,54.006645 185.999390,53.999687 186.311981,53.945694 
	C187.444351,53.273087 188.264114,52.654469 189.083862,52.035847 
z"/>
<path fill="#AFB1B4" opacity="1.000000" stroke="none" 
	d="
M185.639496,54.022934 
	C179.839462,58.990368 173.434402,63.714466 167.541351,69.008507 
	C152.394409,82.615829 141.271652,99.235184 131.806946,117.796806 
	C130.742706,118.789070 129.972076,119.272346 129.638763,119.965820 
	C121.797134,136.281265 116.582451,153.420578 114.149818,171.344299 
	C113.542175,175.821457 114.011909,180.444839 113.988663,185.374985 
	C113.990395,186.496933 113.989937,187.244919 113.631332,188.150162 
	C113.094101,194.960510 112.901756,201.613342 112.789589,208.267548 
	C112.785553,208.507294 113.571518,208.760376 113.989799,209.380890 
	C113.989769,210.501678 113.989250,211.248825 113.760056,212.326538 
	C113.679169,216.411987 113.575615,220.196625 114.015823,223.916916 
	C116.738243,246.924866 124.247864,268.388000 135.465424,288.570129 
	C137.172806,291.641937 139.796402,294.204498 141.998108,297.001312 
	C142.000000,297.000000 141.997238,297.002808 142.018372,297.339142 
	C142.692429,298.450714 143.345352,299.225983 143.999146,300.000610 
	C144.000000,300.000000 143.998779,300.001221 144.016403,300.355957 
	C145.020920,301.808380 146.007797,302.906036 146.997345,304.001862 
	C147.000000,304.000000 146.996109,304.004089 147.014343,304.358582 
	C148.020020,305.809845 149.007446,306.906647 149.997437,308.001709 
	C150.000000,308.000000 149.996323,308.003998 150.014908,308.364716 
	C152.020340,310.818268 154.007202,312.911133 156.260162,315.158630 
	C157.349014,316.211151 158.171738,317.109009 159.011627,318.357239 
	C160.019669,320.470917 161.010544,322.234253 162.000656,323.998779 
	C161.999908,324.000000 161.995239,324.004883 161.995239,324.004883 
	C159.116135,321.941406 155.707397,320.340424 153.439514,317.743225 
	C129.675140,290.528046 115.694466,258.693939 111.252083,223.032745 
	C106.675507,186.294357 111.741837,150.737564 128.149094,117.203835 
	C140.204346,92.564865 156.880157,71.789162 179.901962,56.478027 
	C181.516891,55.403984 183.471207,54.840252 185.639496,54.022934 
z"/>
<path fill="#ADB0B4" opacity="1.000000" stroke="none" 
	d="
M374.033508,129.998901 
	C367.894836,114.731697 360.416595,100.183975 350.125763,87.273071 
	C345.499054,81.468437 340.304688,76.116257 335.209412,70.268509 
	C339.681335,73.825310 344.931366,77.133850 348.828674,81.618080 
	C361.686523,96.412262 371.577393,113.100731 378.348816,131.544617 
	C384.549072,148.432663 389.203613,165.690384 389.988068,183.785370 
	C390.116760,186.754990 389.806305,189.743668 389.298950,192.581268 
	C388.596954,191.959991 388.294830,191.480957 387.993622,190.573563 
	C387.993073,188.432755 387.991547,186.720322 387.992371,184.564819 
	C386.837952,166.608612 383.168762,149.650116 376.638611,133.346405 
	C376.133392,132.085114 374.918518,131.108063 374.033508,129.998901 
z"/>
<path fill="#ADB0B4" opacity="1.000000" stroke="none" 
	d="
M389.007324,203.993286 
	C389.651001,205.180405 391.016022,206.496582 390.830139,207.535278 
	C388.044861,223.101547 385.647797,238.776459 381.889313,254.114578 
	C379.667816,263.180328 375.276978,271.724335 371.714050,280.442657 
	C371.058838,282.045990 369.695374,283.359863 368.394653,284.548859 
	C375.732361,267.874390 382.210907,251.072067 385.391388,233.172852 
	C385.684723,231.522064 385.157654,229.725494 385.010803,227.665161 
	C385.011383,226.891647 385.012695,226.449600 385.340271,225.887115 
	C386.107788,224.508560 386.549042,223.250458 386.933899,221.654404 
	C386.589752,220.213455 386.302002,219.110443 386.359406,217.863953 
	C387.133179,215.477859 387.561829,213.235245 387.990906,210.576477 
	C387.991852,208.772888 387.992310,207.385437 388.195435,205.793335 
	C388.601166,205.056885 388.804230,204.525085 389.007324,203.993286 
z"/>
<path fill="#A8ACB1" opacity="1.000000" stroke="none" 
	d="
M385.011505,227.996613 
	C385.157654,229.725494 385.684723,231.522064 385.391388,233.172852 
	C382.210907,251.072067 375.732361,267.874390 368.067017,284.647003 
	C368.003540,285.003662 368.000153,285.500732 367.998230,285.749268 
	C365.890594,288.284424 363.784882,290.571106 361.402924,292.574860 
	C365.439636,283.146637 370.373138,274.232941 373.895935,264.792786 
	C377.628906,254.789444 380.021027,244.285736 383.217072,233.714142 
	C383.960724,231.617355 384.486115,229.806976 385.011505,227.996613 
z"/>
<path fill="#AFB1B4" opacity="1.000000" stroke="none" 
	d="
M175.004639,335.995117 
	C170.713135,332.222534 166.421631,328.449951 162.062683,324.341125 
	C161.995239,324.004883 161.999908,324.000000 162.374680,323.999786 
	C163.497345,324.001617 164.245255,324.003662 165.259369,324.160187 
	C166.349152,325.211700 167.172699,326.108765 168.065430,327.346924 
	C170.088120,329.126801 172.041656,330.565613 173.997574,332.002197 
	C173.999969,332.000000 173.995117,332.006287 174.052948,332.345093 
	C174.408737,333.787628 174.706680,334.891357 175.004639,335.995117 
z"/>
<path fill="#A8ACB1" opacity="1.000000" stroke="none" 
	d="
M389.007141,203.662170 
	C388.804230,204.525085 388.601166,205.056885 387.963318,205.454178 
	C387.683258,200.547089 387.837982,195.774490 387.992676,191.001923 
	C388.294830,191.480957 388.596954,191.959991 388.953186,192.722870 
	C389.007355,193.448227 389.007416,193.889725 389.004761,195.100861 
	C389.003815,197.915771 389.005554,199.961060 389.007324,202.006348 
	C389.007202,202.447922 389.007080,202.889481 389.007141,203.662170 
z"/>
<path fill="#AFB1B4" opacity="1.000000" stroke="none" 
	d="
M185.054535,341.057922 
	C184.579544,341.347565 184.104568,341.637207 183.349792,341.975464 
	C180.759460,340.239929 178.448898,338.455780 176.415833,336.406677 
	C178.463867,336.759460 180.234421,337.377136 182.273407,338.152802 
	C183.379395,339.226501 184.216965,340.142212 185.054535,341.057922 
z"/>
<path fill="#A8ACB1" opacity="1.000000" stroke="none" 
	d="
M182.004974,337.994812 
	C180.234421,337.377136 178.463867,336.759460 176.345734,336.072113 
	C175.998169,336.002441 175.501343,335.998779 175.252991,335.996948 
	C174.706680,334.891357 174.408737,333.787628 174.391479,332.408997 
	C177.116425,334.087646 179.560699,336.041229 182.004974,337.994812 
z"/>
<path fill="#ADB0B4" opacity="1.000000" stroke="none" 
	d="
M389.346313,201.869385 
	C389.005554,199.961060 389.003815,197.915771 389.004700,195.432068 
	C391.972504,196.964310 391.603058,199.270493 389.346313,201.869385 
z"/>
<path fill="#AFB1B4" opacity="1.000000" stroke="none" 
	d="
M188.738297,52.045486 
	C188.264114,52.654469 187.444351,53.273087 186.314972,53.952209 
	C186.801163,53.360184 187.596939,52.707653 188.738297,52.045486 
z"/>
<path fill="#6B94C7" opacity="1.000000" stroke="none" 
	d="
M312.977142,341.149933 
	C304.293396,348.211823 294.093872,352.275909 283.429016,354.759857 
	C273.306763,357.117401 262.917877,359.531891 252.616425,359.668121 
	C231.095261,359.952637 210.525528,354.997437 191.686401,344.081360 
	C190.726791,343.525330 190.032349,342.511688 189.106339,341.350891 
	C188.998230,340.990631 188.970703,340.912476 189.334366,340.873108 
	C191.125565,340.553436 192.553116,340.273102 194.057312,340.335388 
	C196.859512,342.413086 199.446838,344.432587 202.333710,345.835785 
	C217.712341,353.310547 234.201874,356.801300 251.100845,356.778320 
	C266.979034,356.756775 282.511017,353.316986 297.076569,346.660004 
	C300.658417,345.022980 303.719208,342.245697 307.409760,339.993164 
	C308.836365,340.036133 309.872772,340.078491 311.128845,340.314117 
	C311.891418,340.721558 312.434296,340.935760 312.977142,341.149933 
z"/>
<path fill="#9DA3AB" opacity="1.000000" stroke="none" 
	d="
M182.273407,338.152802 
	C179.560699,336.041229 177.116425,334.087646 174.333633,332.070190 
	C173.995117,332.006287 173.999969,332.000000 173.830322,331.715485 
	C171.772537,329.955902 169.884399,328.480865 167.996246,327.005798 
	C167.172699,326.108765 166.349152,325.211700 165.095261,323.876343 
	C162.774765,321.627625 160.884613,319.817230 158.994461,318.006836 
	C158.171738,317.109009 157.349014,316.211151 156.197632,314.823975 
	C153.911423,312.224426 151.953873,310.114227 149.996323,308.003998 
	C149.996323,308.003998 150.000000,308.000000 149.940979,307.680054 
	C148.919998,306.241425 147.958054,305.122772 146.996109,304.004089 
	C146.996109,304.004089 147.000000,304.000000 146.940979,303.680176 
	C145.920898,302.240662 144.959839,301.120941 143.998779,300.001221 
	C143.998779,300.001221 144.000000,300.000000 143.946655,299.689331 
	C143.261276,298.586731 142.629257,297.794769 141.997238,297.002808 
	C141.997238,297.002808 142.000000,297.000000 141.937256,296.650085 
	C136.858032,286.405151 130.912735,276.855377 127.072456,266.523224 
	C122.776260,254.964401 120.387947,242.696426 117.169380,230.737061 
	C118.308968,231.948273 119.992065,232.965897 120.503204,234.400955 
	C125.090767,247.280869 129.472244,260.234192 133.985672,273.911316 
	C134.178238,275.307495 134.181839,276.009094 134.437622,276.601837 
	C143.933762,298.607361 159.185760,316.052856 177.543686,331.055237 
	C181.437454,334.237274 185.166016,337.621460 188.970703,340.912476 
	C188.970703,340.912476 188.998230,340.990631 189.012665,341.030182 
	C187.966599,341.056030 186.906097,341.042297 185.450058,341.043274 
	C184.216965,340.142212 183.379395,339.226501 182.273407,338.152802 
z"/>
<path fill="#A4A9AE" opacity="1.000000" stroke="none" 
	d="
M359.992676,294.992676 
	C356.591736,300.211853 353.537659,305.701782 349.718567,310.594513 
	C341.437347,321.203827 331.553772,330.186676 320.425232,337.797028 
	C319.131927,338.681488 318.220612,340.124512 317.061584,341.645599 
	C316.153625,341.809418 315.316284,341.636261 314.233765,340.877136 
	C313.994690,339.529419 314.000793,338.767700 314.254333,338.003113 
	C314.501770,338.000305 314.996796,337.995331 315.292847,337.916626 
	C316.061340,337.227142 316.533722,336.616425 317.253876,336.003387 
	C317.501617,336.001099 317.997101,335.995667 318.308289,335.943176 
	C319.411621,335.259247 320.203796,334.627808 321.188782,333.857117 
	C321.625580,333.510773 321.831696,333.271118 322.295654,332.919189 
	C323.062714,332.228058 323.534119,331.616669 324.291718,330.833984 
	C329.385681,326.442200 334.193451,322.221710 339.327148,317.935699 
	C340.434570,316.912811 341.216064,315.955444 342.174500,314.723328 
	C343.568451,312.966553 344.785431,311.484619 346.297821,309.921661 
	C347.061737,309.227081 347.530243,308.613464 348.148071,307.738678 
	C348.866699,306.653503 349.436005,305.829529 350.300262,304.923553 
	C351.062714,304.227325 351.530212,303.613037 352.119751,302.747620 
	C352.496185,301.999298 352.750519,301.502136 353.320068,300.903320 
	C354.091644,299.869110 354.548035,298.936554 355.002197,298.002014 
	C355.000000,298.000000 355.005371,298.004242 355.300476,297.922607 
	C356.062164,297.226288 356.528809,296.611603 356.997864,295.749207 
	C357.000305,295.501495 357.005402,295.006104 357.378906,295.005005 
	C358.499146,295.000153 359.245911,294.996399 359.992676,294.992676 
z"/>
<path fill="#9BA2AA" opacity="1.000000" stroke="none" 
	d="
M314.006866,338.005951 
	C314.000793,338.767700 313.994690,339.529419 313.980957,340.673279 
	C313.807007,341.066406 313.640625,341.077423 313.225708,341.119171 
	C312.434296,340.935760 311.891418,340.721558 311.308289,340.033936 
	C312.180969,339.042297 313.093903,338.524139 314.006866,338.005951 
z"/>
<path fill="#9BA2AA" opacity="1.000000" stroke="none" 
	d="
M360.046326,294.710876 
	C359.245911,294.996399 358.499146,295.000153 357.472748,294.672028 
	C358.786804,290.536224 360.380493,286.732300 361.974182,282.928345 
	C365.171967,275.978607 368.769867,269.179993 371.466675,262.040985 
	C374.870392,253.030594 377.539185,243.742554 381.082458,234.283295 
	C382.092865,233.995056 382.545807,233.997818 382.998779,234.000580 
	C380.021027,244.285736 377.628906,254.789444 373.895935,264.792786 
	C370.373138,274.232941 365.439636,283.146637 361.064575,292.646576 
	C360.701630,293.477173 360.400818,293.953125 360.046326,294.710876 
z"/>
<path fill="#638BBF" opacity="1.000000" stroke="none" 
	d="
M307.019531,339.992615 
	C303.719208,342.245697 300.658417,345.022980 297.076569,346.660004 
	C282.511017,353.316986 266.979034,356.756775 251.100845,356.778320 
	C234.201874,356.801300 217.712341,353.310547 202.333710,345.835785 
	C199.446838,344.432587 196.859512,342.413086 194.313629,340.202393 
	C195.006668,339.460266 195.520020,339.193695 196.033371,338.927155 
	C204.953125,342.101196 213.715073,345.853210 222.822571,348.339600 
	C248.903214,355.459808 274.183258,352.232361 298.656342,341.225128 
	C300.473267,340.407928 302.378510,339.787079 304.863892,339.131042 
	C305.996552,339.455627 306.508057,339.724121 307.019531,339.992615 
z"/>
<path fill="#949DA8" opacity="1.000000" stroke="none" 
	d="
M195.836731,338.655396 
	C195.520020,339.193695 195.006668,339.460266 194.236984,339.859802 
	C192.553116,340.273102 191.125565,340.553436 189.334351,340.873108 
	C185.166016,337.621460 181.437454,334.237274 177.543686,331.055237 
	C159.185760,316.052856 143.933762,298.607361 134.437622,276.601837 
	C134.181839,276.009094 134.178238,275.307495 134.053467,274.268890 
	C137.606995,279.644501 140.999542,285.517487 144.751129,291.151367 
	C157.550461,310.372498 173.644165,326.105499 194.089661,337.152130 
	C194.661377,337.460999 195.125687,337.968628 195.836731,338.655396 
z"/>
<path fill="#949DA8" opacity="1.000000" stroke="none" 
	d="
M307.409760,339.993164 
	C306.508057,339.724121 305.996552,339.455627 305.225830,339.056946 
	C310.996338,334.846497 317.158630,330.947327 323.029877,326.650513 
	C337.975800,315.712555 349.767395,301.880737 359.455566,286.180145 
	C360.061279,285.198517 360.765564,284.277710 361.699097,283.128479 
	C360.380493,286.732300 358.786804,290.536224 357.099243,294.673157 
	C357.005402,295.006104 357.000305,295.501495 356.702698,295.830658 
	C355.938507,296.774628 355.471954,297.389435 355.005371,298.004242 
	C355.005371,298.004242 355.000000,298.000000 354.734375,298.168640 
	C353.980835,299.226532 353.492859,300.115784 353.004883,301.005005 
	C352.750519,301.502136 352.496185,301.999298 351.824280,302.828674 
	C350.939575,303.775787 350.472443,304.390656 350.005310,305.005524 
	C349.436005,305.829529 348.866699,306.653503 347.852539,307.819305 
	C346.939270,308.774963 346.470856,309.388824 346.002441,310.002655 
	C344.785431,311.484619 343.568451,312.966553 341.848633,314.788879 
	C340.564270,316.086578 339.782745,317.043915 339.001221,318.001221 
	C334.193451,322.221710 329.385681,326.442200 323.995300,330.912598 
	C322.941803,331.774658 322.470886,332.386810 322.000000,332.998932 
	C321.831696,333.271118 321.625580,333.510773 320.852631,333.878357 
	C319.548157,334.691132 318.772614,335.343414 317.997101,335.995667 
	C317.997101,335.995667 317.501617,336.001099 316.957458,336.081726 
	C315.941132,336.773376 315.468964,337.384369 314.996796,337.995331 
	C314.996796,337.995331 314.501770,338.000305 314.254333,338.003113 
	C313.093903,338.524139 312.180969,339.042297 311.088562,339.840698 
	C309.872772,340.078491 308.836365,340.036133 307.409760,339.993164 
z"/>
<path fill="#A8ACB1" opacity="1.000000" stroke="none" 
	d="
M113.986481,185.001007 
	C114.011909,180.444839 113.542175,175.821457 114.149818,171.344299 
	C116.582451,153.420578 121.797134,136.281265 129.638763,119.965820 
	C129.972076,119.272346 130.742706,118.789070 131.637512,118.102814 
	C127.833397,131.214478 123.185585,144.299133 119.755447,157.695541 
	C117.563911,166.254623 117.173080,175.274750 115.634201,184.542328 
	C114.857803,184.998001 114.422142,184.999496 113.986481,185.001007 
z"/>
<path fill="#A8ACB1" opacity="1.000000" stroke="none" 
	d="
M117.169380,230.483154 
	C120.387947,242.696426 122.776260,254.964401 127.072456,266.523224 
	C130.912735,276.855377 136.858032,286.405151 141.935364,296.651367 
	C139.796402,294.204498 137.172806,291.641937 135.465424,288.570129 
	C124.247864,268.388000 116.738243,246.924866 114.015823,223.916916 
	C113.575615,220.196625 113.679169,216.411987 113.993652,212.658600 
	C115.338432,218.176437 116.220932,223.692795 117.103439,229.209137 
	C117.125412,229.549179 117.147400,229.889206 117.169380,230.483154 
z"/>
<path fill="#A8ACB1" opacity="1.000000" stroke="none" 
	d="
M374.039429,130.382126 
	C374.918518,131.108063 376.133392,132.085114 376.638611,133.346405 
	C383.168762,149.650116 386.837952,166.608612 387.669067,184.444733 
	C386.256653,183.181091 385.169952,181.594482 384.083252,180.007874 
	C383.315430,163.068146 379.531281,146.743286 374.039429,130.382126 
z"/>
<path fill="#A1A6AD" opacity="1.000000" stroke="none" 
	d="
M384.058350,180.439163 
	C385.169952,181.594482 386.256653,183.181091 387.666687,184.887787 
	C387.991547,186.720322 387.993073,188.432755 387.993652,190.573547 
	C387.837982,195.774490 387.683258,200.547089 387.760651,205.658844 
	C387.992310,207.385437 387.991852,208.772888 387.645355,210.719666 
	C386.870972,213.521820 386.442596,215.764618 386.014252,218.007431 
	C386.302002,219.110443 386.589752,220.213455 386.607300,221.774597 
	C385.896088,223.491013 385.455048,224.749268 385.014038,226.007538 
	C385.012695,226.449600 385.011383,226.891647 385.010803,227.665161 
	C384.486115,229.806976 383.960724,231.617355 383.217072,233.714157 
	C382.545807,233.997818 382.092865,233.995056 381.299561,233.986389 
	C383.309113,216.353836 386.600403,198.781693 384.058350,180.439163 
z"/>
<path fill="#A1A6AD" opacity="1.000000" stroke="none" 
	d="
M117.111740,229.171906 
	C116.220932,223.692795 115.338432,218.176437 114.222328,212.328033 
	C113.989250,211.248825 113.989769,210.501678 113.993401,208.911621 
	C113.994164,201.376755 113.991821,194.684830 113.989487,187.992889 
	C113.989937,187.244919 113.990395,186.496933 113.988663,185.374985 
	C114.422142,184.999496 114.857803,184.998001 115.619225,184.994476 
	C116.653427,198.008759 117.361877,211.025070 117.915787,224.798340 
	C117.536720,226.725388 117.312202,227.895462 117.087677,229.065552 
	C117.087677,229.065552 117.120041,229.134659 117.111740,229.171906 
z"/>
<path fill="#9DA3AB" opacity="1.000000" stroke="none" 
	d="
M117.405670,228.978943 
	C117.312202,227.895462 117.536720,226.725388 117.916946,225.223572 
	C117.956322,226.225342 117.839989,227.558838 117.405670,228.978943 
z"/>
<path fill="#A8ACB1" opacity="1.000000" stroke="none" 
	d="
M113.631332,188.150162 
	C113.991821,194.684830 113.994164,201.376755 113.992905,208.537964 
	C113.571518,208.760376 112.785553,208.507294 112.789589,208.267548 
	C112.901756,201.613342 113.094101,194.960510 113.631332,188.150162 
z"/>
<path fill="#A8ACB1" opacity="1.000000" stroke="none" 
	d="
M150.014908,308.364716 
	C151.953873,310.114227 153.911423,312.224426 155.931519,314.669312 
	C154.007202,312.911133 152.020340,310.818268 150.014908,308.364716 
z"/>
<path fill="#A8ACB1" opacity="1.000000" stroke="none" 
	d="
M159.011627,318.357239 
	C160.884613,319.817230 162.774765,321.627625 164.829041,323.721863 
	C164.245255,324.003662 163.497345,324.001617 162.375427,323.998566 
	C161.010544,322.234253 160.019669,320.470917 159.011627,318.357239 
z"/>
<path fill="#A8ACB1" opacity="1.000000" stroke="none" 
	d="
M144.016403,300.355957 
	C144.959839,301.120941 145.920898,302.240662 146.938324,303.682068 
	C146.007797,302.906036 145.020920,301.808380 144.016403,300.355957 
z"/>
<path fill="#A8ACB1" opacity="1.000000" stroke="none" 
	d="
M147.014343,304.358582 
	C147.958054,305.122772 148.919998,306.241425 149.938416,307.681763 
	C149.007446,306.906647 148.020020,305.809845 147.014343,304.358582 
z"/>
<path fill="#A8ACB1" opacity="1.000000" stroke="none" 
	d="
M142.018372,297.339142 
	C142.629257,297.794769 143.261276,298.586731 143.945786,299.689941 
	C143.345352,299.225983 142.692429,298.450714 142.018372,297.339142 
z"/>
<path fill="#A8ACB1" opacity="1.000000" stroke="none" 
	d="
M386.359406,217.863953 
	C386.442596,215.764618 386.870972,213.521820 387.644897,211.135818 
	C387.561829,213.235245 387.133179,215.477859 386.359406,217.863953 
z"/>
<path fill="#A8ACB1" opacity="1.000000" stroke="none" 
	d="
M385.340271,225.887115 
	C385.455048,224.749268 385.896088,223.491013 386.663696,222.112549 
	C386.549042,223.250458 386.107788,224.508560 385.340271,225.887115 
z"/>
<path fill="#A8ACB1" opacity="1.000000" stroke="none" 
	d="
M168.065430,327.346924 
	C169.884399,328.480865 171.772537,329.955902 173.827942,331.717682 
	C172.041656,330.565613 170.088120,329.126801 168.065430,327.346924 
z"/>
<path fill="#9BA2AA" opacity="1.000000" stroke="none" 
	d="
M339.327148,317.935699 
	C339.782745,317.043915 340.564270,316.086578 341.671692,315.063690 
	C341.216064,315.955444 340.434570,316.912811 339.327148,317.935699 
z"/>
<path fill="#9BA2AA" opacity="1.000000" stroke="none" 
	d="
M318.308289,335.943176 
	C318.772614,335.343414 319.548157,334.691132 320.659790,334.017639 
	C320.203796,334.627808 319.411621,335.259247 318.308289,335.943176 
z"/>
<path fill="#9BA2AA" opacity="1.000000" stroke="none" 
	d="
M353.320068,300.903320 
	C353.492859,300.115784 353.980835,299.226532 354.736603,298.170654 
	C354.548035,298.936554 354.091644,299.869110 353.320068,300.903320 
z"/>
<path fill="#9BA2AA" opacity="1.000000" stroke="none" 
	d="
M322.295654,332.919189 
	C322.470886,332.386810 322.941803,331.774658 323.709106,331.083923 
	C323.534119,331.616669 323.062714,332.228058 322.295654,332.919189 
z"/>
<path fill="#9BA2AA" opacity="1.000000" stroke="none" 
	d="
M315.292847,337.916626 
	C315.468964,337.384369 315.941132,336.773376 316.709717,336.084045 
	C316.533722,336.616425 316.061340,337.227142 315.292847,337.916626 
z"/>
<path fill="#9BA2AA" opacity="1.000000" stroke="none" 
	d="
M346.297821,309.921661 
	C346.470856,309.388824 346.939270,308.774963 347.703247,308.080505 
	C347.530243,308.613464 347.061737,309.227081 346.297821,309.921661 
z"/>
<path fill="#9BA2AA" opacity="1.000000" stroke="none" 
	d="
M350.300262,304.923553 
	C350.472443,304.390656 350.939575,303.775787 351.702209,303.079834 
	C351.530212,303.613037 351.062714,304.227325 350.300262,304.923553 
z"/>
<path fill="#9BA2AA" opacity="1.000000" stroke="none" 
	d="
M355.300476,297.922607 
	C355.471954,297.389435 355.938507,296.774628 356.700256,296.078369 
	C356.528809,296.611603 356.062164,297.226288 355.300476,297.922607 
z"/>
</svg>