<svg version="1.1" id="Layer_1" xmlns="http://www.w3.org/2000/svg" xmlns:xlink="http://www.w3.org/1999/xlink" x="0px" y="0px"
	 width="100%" viewBox="0 0 873 286" enable-background="new 0 0 873 286" xml:space="preserve">
<path fill="#010101" opacity="1.000000" stroke="none" 
	d="
M565.000000,287.000000 
	C376.666718,287.000000 188.833420,287.000000 1.000101,287.000000 
	C1.000067,191.666733 1.000067,96.333466 1.000034,1.000152 
	C291.999847,1.000101 582.999695,1.000101 873.999634,1.000051 
	C873.999756,96.333168 873.999756,191.666336 873.999878,286.999756 
	C771.166687,287.000000 668.333313,287.000000 565.000000,287.000000 
M201.457275,74.082413 
	C201.308624,74.381912 201.159973,74.681412 200.986633,74.992271 
	C200.986633,74.992271 200.986710,75.019455 200.486191,75.334351 
	C200.277267,75.874008 200.068359,76.413658 199.945282,76.956024 
	C199.945282,76.956024 199.907455,76.878922 199.367844,77.327583 
	C199.202606,78.232880 199.037369,79.138176 198.740997,80.237312 
	C198.740997,80.237312 198.884796,80.421944 198.485916,80.815178 
	C198.490601,81.173820 198.495300,81.532463 198.293808,82.588852 
	C198.382690,83.058075 198.471573,83.527290 198.445404,84.740417 
	C198.842911,86.207191 199.240433,87.673965 199.293686,89.046921 
	C199.293686,89.046921 199.031357,89.288795 198.337311,89.144264 
	C196.861877,89.740387 195.386459,90.336510 193.978088,90.980621 
	C193.978088,90.980621 193.966537,90.898972 193.365021,90.941040 
	C192.886642,91.276489 192.408279,91.611931 191.985947,91.996689 
	C191.985947,91.996689 191.970932,91.923553 191.366486,91.947609 
	C190.884155,92.278709 190.401810,92.609810 189.991928,92.993057 
	C189.991928,92.993057 189.947708,92.915527 189.255829,92.996696 
	C188.280914,93.608734 187.306000,94.220772 186.153061,94.780045 
	C186.153061,94.780045 186.024139,94.913666 185.357239,94.988770 
	C184.215744,95.644539 183.074249,96.300308 181.983078,97.004524 
	C181.983078,97.004524 181.964981,96.937080 181.305176,96.992264 
	C180.178711,97.644966 179.052246,98.297661 177.983231,99.001854 
	C177.983231,99.001854 177.958984,98.928627 177.286194,98.999901 
	C175.752716,99.847374 174.219238,100.694855 173.061707,101.807693 
	C173.061707,101.807693 172.702927,101.518959 172.013199,101.648811 
	C171.451965,102.039558 170.890732,102.430298 170.192001,102.782402 
	C170.192001,102.782402 170.084167,102.876060 169.492447,102.901276 
	C169.208130,103.151176 168.923828,103.401077 168.799835,103.687607 
	C168.799835,103.687607 168.733490,103.537148 168.039597,103.662720 
	C167.474655,104.053825 166.909698,104.444931 166.205841,104.783722 
	C166.205841,104.783722 166.091248,104.878067 165.444061,104.885818 
	C164.935257,105.236557 164.426437,105.587303 163.982040,105.981972 
	C163.982040,105.981972 163.976120,105.904228 163.361160,105.932755 
	C162.862778,106.277069 162.364395,106.621384 161.489044,106.886185 
	C161.489044,106.886185 161.112671,106.968559 160.690521,106.425728 
	C158.467148,103.282631 156.243759,100.139526 154.003098,96.994919 
	C154.003098,96.994919 154.009293,96.978088 153.868240,96.301033 
	C149.493652,89.706635 145.318329,82.965637 140.634567,76.598679 
	C139.031494,74.419518 136.154007,73.177856 134.443222,70.908089 
	C135.751465,70.015457 136.995605,69.005531 138.378555,68.249542 
	C146.346725,63.893818 148.025360,54.858177 142.002594,47.953667 
	C142.002594,47.953667 142.109879,47.924911 141.976028,47.401737 
	C141.670547,47.235786 141.365067,47.069839 141.027664,47.005390 
	C141.027664,47.005390 141.080795,46.910385 140.754761,46.285503 
	C133.931717,42.053913 129.699844,42.228073 123.471672,47.098724 
	C123.303596,47.375965 123.135529,47.653202 122.420746,48.153236 
	C122.126419,48.652214 121.832085,49.151192 121.662003,49.594856 
	C121.662003,49.594856 121.564713,49.689335 121.031517,50.157234 
	C117.605927,58.355625 119.743607,64.558990 127.290146,68.931641 
	C128.093109,69.396896 128.293808,70.901566 128.182587,72.201080 
	C126.439072,74.441673 124.695549,76.682259 122.434959,79.219017 
	C122.186333,79.751923 121.937698,80.284821 121.813248,80.847214 
	C121.813248,80.847214 121.772263,80.726341 121.289551,80.959328 
	C121.173462,81.288132 121.057381,81.616928 120.998329,81.995476 
	C120.998329,81.995476 120.933838,81.956795 120.405663,82.279884 
	C119.921631,83.176994 119.437599,84.074104 118.538536,85.200623 
	C118.287514,85.427948 118.165215,85.710907 117.673660,86.480782 
	C116.771935,87.977524 115.870209,89.474266 115.000000,91.000000 
	C115.000000,91.000000 114.968994,90.971581 114.442123,91.298180 
	C113.948875,92.186104 113.455620,93.074028 113.000412,93.996475 
	C113.000412,93.996475 112.959702,93.968719 112.425873,94.285477 
	C111.934509,95.177483 111.443146,96.069481 110.999695,97.000000 
	C110.999695,97.000000 110.957008,96.955841 110.426659,97.278999 
	C109.941673,98.175362 109.456696,99.071724 109.000160,99.995995 
	C109.000160,99.995995 108.966850,99.977470 108.432297,100.294731 
	C107.942787,101.188583 107.453278,102.082443 107.002853,102.995987 
	C107.002853,102.995987 106.971848,102.963562 106.444923,103.289185 
	C105.941628,104.177719 105.438332,105.066254 104.996544,105.994354 
	C104.996544,105.994354 104.965256,105.928246 104.451622,106.100311 
	C104.234695,106.380135 104.017761,106.659958 103.297508,106.807480 
	C102.957253,106.764885 102.616997,106.722290 102.102623,106.863708 
	C102.102623,106.863708 102.314484,106.724808 102.083130,106.215408 
	C101.739471,106.103661 101.395805,105.991920 101.021606,105.978111 
	C101.021606,105.978111 101.096535,105.908051 100.721703,105.326782 
	C89.024170,99.551140 77.326637,93.775497 65.596191,87.983597 
	C68.009346,81.769302 66.499054,75.669113 61.388100,72.012169 
	C56.201878,68.301376 49.761646,68.687874 44.881695,73.002769 
	C40.422848,76.945320 39.219418,83.719894 42.056713,88.905663 
	C45.386848,94.992203 51.119804,96.921188 59.570877,94.794922 
	C60.282612,96.611115 60.994347,98.427307 61.743671,100.905884 
	C62.031910,101.730385 62.320148,102.554878 62.659779,104.091293 
	C63.295685,105.861839 63.931595,107.632378 64.707748,110.148941 
	C66.501389,115.428558 68.295029,120.708176 70.011086,126.759247 
	C72.712746,135.001221 75.422997,143.240402 78.113693,151.485947 
	C80.930481,160.117874 82.474228,161.238617 91.696533,161.233932 
	C99.182808,161.230118 106.669090,161.214630 114.155365,161.206024 
	C134.784180,161.182327 155.414536,161.273666 176.039841,160.993027 
	C178.641479,160.957626 182.558655,159.655502 183.534363,157.747665 
	C185.812454,153.293198 186.671326,148.112930 188.776962,142.982605 
	C191.293884,135.800674 193.930435,128.657761 196.288422,121.424034 
	C198.055069,116.004410 199.463028,110.467873 201.159348,104.517067 
	C201.488968,104.179062 201.818573,103.841057 202.629196,102.996719 
	C202.754959,102.323189 202.880737,101.649658 203.362915,100.424034 
	C203.464844,100.003395 203.566788,99.582748 204.024857,98.648376 
	C204.614319,97.123695 205.203781,95.599007 206.309128,94.641823 
	C213.678406,97.386826 220.421387,94.639641 223.384781,87.684952 
	C226.112991,81.282211 223.920715,74.926613 217.606079,71.908600 
	C217.606079,71.908600 217.214676,71.922943 216.954559,71.241394 
	C211.835220,68.063423 207.241287,69.162384 202.997391,72.994316 
	C202.997391,72.994316 202.964264,72.971283 202.458939,73.100624 
	C202.281998,73.386597 202.105042,73.672562 201.994873,73.994217 
	C201.994873,73.994217 201.956528,73.928940 201.457275,74.082413 
M73.436859,200.118546 
	C73.315102,200.430252 73.193336,200.741959 72.572258,201.341400 
	C72.326553,201.846252 72.080841,202.351105 71.301277,203.186951 
	C70.898041,204.131439 70.494804,205.075912 69.635216,206.604065 
	C68.783546,209.738815 67.931870,212.873550 66.875626,216.814362 
	C67.261406,218.858490 67.647186,220.902618 67.993790,222.987457 
	C67.993790,222.987457 68.048653,222.974426 68.181419,223.676300 
	C70.654648,224.736862 73.123177,226.708710 75.601814,226.721527 
	C113.598763,226.917938 151.597214,226.904892 189.594452,226.739182 
	C191.752380,226.729767 193.902725,224.982056 195.999634,224.001877 
	C195.999634,224.001877 196.045288,224.055832 196.675247,223.746048 
	C199.815399,219.598175 198.572449,215.665665 196.126099,211.030167 
	C194.951294,203.024002 189.619446,197.868927 183.385620,192.520767 
	C177.278946,188.782135 170.726517,186.932327 163.485641,186.988815 
	C142.158905,187.155228 120.830383,187.104462 99.502548,187.113876 
	C92.986847,187.116745 87.071518,188.925522 81.181892,192.885727 
	C80.405075,193.537506 79.628258,194.189270 78.348885,194.959686 
	C78.152740,195.230225 77.956596,195.500748 77.179054,195.993347 
	C76.392670,196.933472 75.606285,197.873581 74.338081,198.999374 
	C74.193352,199.300293 74.048622,199.601212 73.436859,200.118546 
M89.261459,169.073837 
	C88.479530,171.551743 86.661911,174.259842 87.149925,176.455490 
	C87.951965,180.063904 91.361526,180.999222 95.074791,180.984634 
	C119.889420,180.887192 144.704559,180.928986 169.519547,180.911072 
	C174.914322,180.907181 178.325378,178.368500 178.497528,174.305145 
	C178.661758,170.428452 174.985489,167.353287 169.850586,167.356873 
	C144.869385,167.374329 119.888062,167.430634 94.907402,167.577148 
	C93.235619,167.586960 91.568863,168.455780 89.980728,169.003525 
	C89.980728,169.003525 89.925247,168.906235 89.261459,169.073837 
M599.471558,140.098175 
	C600.725952,136.807663 601.980408,133.517136 603.722534,128.947372 
	C603.722534,143.928421 603.722534,157.345932 603.722534,170.718567 
	C601.636169,170.950226 599.891296,171.143967 598.163147,171.335846 
	C598.163147,175.480927 598.163147,179.248138 598.163147,183.142181 
	C607.485107,183.142181 616.569458,183.142181 625.581177,183.142181 
	C625.581177,178.911270 625.581177,175.014664 625.581177,170.797546 
	C623.267456,170.797546 621.345398,170.797546 619.305176,170.797546 
	C619.305176,155.709518 619.305176,140.951981 619.305176,126.025131 
	C621.564148,125.838211 623.627686,125.667465 625.740845,125.492607 
	C625.740845,121.319870 625.740845,117.558998 625.740845,113.403114 
	C621.042114,113.403114 616.585144,113.362267 612.129333,113.413834 
	C606.986511,113.473343 600.468567,111.740662 597.077759,114.231018 
	C593.469055,116.881393 592.759033,123.540314 590.895386,128.491165 
	C587.607300,137.226166 584.404236,145.993179 580.848145,155.604935 
	C579.950256,153.269150 579.408997,151.913620 578.905884,150.544052 
	C574.836792,139.466522 570.849182,128.357864 566.626465,117.339279 
	C566.027344,115.775818 564.337097,113.539993 563.081970,113.493294 
	C554.141663,113.160576 545.183167,113.315880 536.170898,113.315880 
	C536.170898,117.765526 536.170898,121.651619 536.170898,125.518379 
	C538.585999,125.763054 540.660339,125.973221 542.609436,126.170685 
	C542.609436,141.251495 542.609436,155.889175 542.609436,170.688690 
	C540.373779,170.883621 538.276123,171.066528 536.135254,171.253204 
	C536.135254,175.386810 536.135254,179.262222 536.135254,183.119324 
	C545.547302,183.119324 554.630676,183.119324 563.621094,183.119324 
	C563.621094,178.878555 563.621094,174.967804 563.621094,171.101379 
	C561.495789,170.997299 559.743469,170.911499 557.836731,170.818115 
	C557.836731,157.798904 557.833862,145.158936 557.850098,132.518982 
	C557.850647,132.120728 558.049438,131.722717 558.465820,130.164078 
	C563.063232,142.802383 567.284241,154.427292 571.521301,166.046371 
	C574.526672,174.287689 574.536255,174.284119 583.273682,174.085693 
	C583.440125,174.081909 583.609436,174.063629 583.772827,174.085510 
	C586.314026,174.425873 587.525574,173.412170 588.394714,170.851196 
	C591.812378,160.780396 595.549438,150.817978 599.471558,140.098175 
M335.049530,183.442642 
	C336.447540,183.327805 337.845581,183.212967 339.131683,183.107330 
	C339.131683,179.418289 339.131683,176.299088 339.131683,173.122025 
	C336.749207,172.979950 334.631012,172.853638 332.286682,172.713852 
	C332.286682,165.223892 332.160126,158.062607 332.329529,150.908310 
	C332.449951,145.823181 337.337769,140.477951 341.805115,140.096100 
	C347.286957,139.627502 351.049286,142.927521 352.002319,149.471634 
	C352.503998,152.916321 352.590118,156.439499 352.629364,159.929886 
	C352.716736,167.700241 352.656616,175.472244 352.656616,183.142654 
	C360.092590,183.142654 366.855469,183.142654 373.525482,183.142654 
	C373.525482,179.558212 373.525482,176.315689 373.525482,172.752960 
	C371.243439,172.752960 369.310944,172.752960 366.971466,172.752960 
	C366.971466,167.797699 367.083038,163.158386 366.940155,158.526932 
	C366.796539,153.873215 366.715820,149.181320 366.047394,144.587662 
	C364.683136,135.212357 358.299866,128.875916 348.884247,128.995987 
	C343.284363,129.067368 337.715302,131.557068 332.169983,132.950104 
	C332.169983,126.092461 332.169983,118.125092 332.169983,110.004356 
	C325.209503,110.004356 318.457550,110.004356 311.523071,110.004356 
	C311.523071,113.480316 311.523071,116.708328 311.523071,120.258507 
	C313.750122,120.258507 315.695740,120.258507 317.813293,120.258507 
	C317.813293,137.960236 317.813293,155.336060 317.813293,172.778000 
	C315.543030,172.915222 313.597992,173.032791 311.453003,173.162445 
	C311.453003,176.613861 311.453003,179.828186 311.453003,183.454010 
	C319.188843,183.454010 326.664337,183.454010 335.049530,183.442642 
M261.124695,161.044678 
	C252.046860,140.672165 262.824768,124.464920 284.504150,125.713745 
	C287.747375,125.900566 289.270020,126.724678 289.272766,130.289551 
	C289.276062,134.573730 289.930756,138.857437 290.328674,143.431702 
	C295.093475,143.431702 299.650787,143.431702 304.544281,143.431702 
	C304.544281,134.990433 304.659668,126.868416 304.398315,118.758560 
	C304.365601,117.744125 302.439484,116.095955 301.224701,115.925713 
	C292.527222,114.706772 283.770203,112.843925 275.063477,112.994919 
	C259.787140,113.259850 248.168060,122.701477 244.297607,136.328674 
	C239.656204,152.670212 244.706192,169.821640 256.614410,178.160797 
	C268.731079,186.645920 290.930969,186.767960 303.101593,178.280380 
	C304.055328,177.615219 305.024323,175.906097 304.846466,174.879684 
	C304.263397,171.514923 303.154083,168.241348 302.174866,164.669479 
	C299.287628,166.113327 296.864594,167.491943 294.315094,168.572052 
	C281.028168,174.200989 268.912323,171.629364 261.124695,161.044678 
M684.597229,154.500183 
	C684.597229,146.386292 684.597229,138.272400 684.597229,129.983948 
	C679.594910,129.983948 675.164978,129.983948 670.440552,129.983948 
	C670.260620,131.661560 670.103027,133.131546 669.912354,134.909973 
	C656.583191,123.461761 635.190857,128.952682 631.687500,148.925461 
	C630.789490,154.045090 630.897888,159.645432 631.928772,164.744949 
	C635.764099,183.716263 653.328552,190.310425 669.008240,179.034821 
	C669.195862,178.899933 669.608826,179.078445 669.922791,179.120300 
	C670.165588,180.509933 670.408386,181.899551 670.620239,183.112091 
	C677.785767,183.112091 684.522949,183.112091 691.067627,183.112091 
	C691.067627,179.491516 691.067627,176.275848 691.067627,173.085693 
	C688.711609,172.964203 686.775696,172.864365 684.600830,172.752213 
	C684.600830,166.786560 684.600830,161.143158 684.597229,154.500183 
M429.159943,159.862061 
	C429.152710,157.364716 429.251038,154.861832 429.119995,152.371002 
	C428.542694,141.394547 422.822021,133.400101 413.405670,130.288498 
	C402.876953,126.809319 389.818817,130.087341 383.112457,137.893036 
	C375.981628,146.192871 374.662170,160.929062 380.121033,171.302856 
	C387.532776,185.387756 413.384857,189.369125 424.797852,178.108109 
	C425.583923,177.332489 426.207764,175.731125 425.983887,174.717667 
	C425.322876,171.725189 424.198120,168.835144 423.205109,165.750565 
	C409.130615,175.438629 395.055939,173.500061 392.950134,161.632935 
	C403.485962,161.632935 413.957092,161.671265 424.427277,161.590851 
	C425.964050,161.579041 427.496460,161.003067 429.159943,159.862061 
M735.818054,155.572433 
	C736.075073,166.232407 738.503357,175.888458 749.020569,181.116608 
	C760.433838,186.790131 771.626892,185.052048 782.376099,179.096191 
	C783.665894,178.381561 785.160706,176.258469 784.980286,175.018112 
	C784.524170,171.883423 783.167419,168.879791 782.087463,165.565872 
	C768.806458,177.004593 752.172974,171.664078 752.144958,161.424377 
	C764.054871,161.424377 775.968567,161.424377 788.814941,161.424377 
	C788.164307,155.951004 787.876953,151.003387 786.931091,146.185043 
	C785.603455,139.422485 781.637085,134.399536 775.353271,131.449921 
	C761.244568,124.827293 736.698059,130.644928 735.818054,155.572433 
M458.509613,184.522629 
	C462.416504,183.775375 466.475983,183.471771 470.199493,182.191238 
	C478.735138,179.255798 482.162689,169.793121 477.165741,162.256195 
	C475.180115,159.261185 471.815308,156.835831 468.570862,155.099533 
	C463.469574,152.369507 457.795380,150.722351 452.636627,148.083282 
	C448.745361,146.092621 448.557861,141.001953 452.303955,139.976425 
	C456.304535,138.881226 460.849335,139.000122 464.976410,139.681076 
	C466.018097,139.852966 466.362610,144.191605 467.056519,146.607162 
	C467.138672,146.893112 467.405304,147.126053 467.728943,147.586182 
	C470.697906,147.586182 473.794739,147.586182 477.419342,147.586182 
	C477.419342,143.563583 477.748871,139.718201 477.267395,135.977173 
	C477.056091,134.335464 475.486023,132.003220 474.029083,131.527466 
	C464.477844,128.408676 454.768127,127.855766 445.088806,131.184357 
	C439.559875,133.085678 436.118683,136.980621 435.267426,142.713028 
	C434.398438,148.564606 436.918823,153.342560 441.836487,156.281815 
	C445.931396,158.729263 450.580292,160.242477 454.957489,162.227570 
	C457.663788,163.454880 460.584656,164.433502 462.933777,166.167770 
	C465.933838,168.382568 465.506226,172.393890 462.007690,173.093506 
	C457.744476,173.945969 453.074127,173.750259 448.797577,172.905670 
	C447.618439,172.672806 447.224945,168.508713 446.443420,166.157593 
	C446.343597,165.857285 446.076447,165.612625 445.934174,165.409714 
	C442.478485,165.409714 439.085388,165.409714 435.399170,165.409714 
	C435.399170,169.578033 435.583893,173.403519 435.338104,177.201126 
	C435.156036,180.014633 436.491699,181.175568 438.913361,181.561157 
	C445.153687,182.554794 451.403595,183.488159 458.509613,184.522629 
M485.791870,179.006485 
	C485.930450,179.478256 485.964142,180.293472 486.222748,180.372498 
	C498.256989,184.049561 510.420502,187.023743 522.558899,181.194031 
	C528.819336,178.187363 530.876038,171.072876 528.469727,164.511185 
	C526.578918,159.355179 522.686951,156.583817 517.936340,154.592819 
	C512.886230,152.476349 507.728912,150.567780 502.864136,148.086609 
	C501.426331,147.353271 500.216980,145.050217 500.041565,143.349075 
	C499.920074,142.171005 501.625885,139.817322 502.730438,139.676468 
	C506.803192,139.157043 511.108765,138.717773 515.012329,139.615555 
	C516.284180,139.908066 516.580750,144.382584 517.366943,146.930939 
	C517.449768,147.199249 517.828125,147.376328 517.878601,147.422195 
	C521.107422,147.422195 524.182739,147.422195 527.597900,147.422195 
	C527.597900,143.081680 527.808655,139.094101 527.475281,135.152557 
	C527.369141,133.897598 526.040039,132.045013 524.891541,131.689148 
	C514.836060,128.573334 504.665527,127.512695 494.582764,131.578796 
	C489.468079,133.641434 485.964478,137.291367 485.365662,142.999817 
	C484.773346,148.645935 487.011444,153.321075 491.799530,156.156631 
	C495.902008,158.586166 500.529877,160.119873 504.891449,162.123642 
	C507.737823,163.431305 510.808380,164.494873 513.260559,166.351776 
	C515.998962,168.425339 515.508362,172.412140 512.322876,172.992691 
	C507.885620,173.801331 503.100983,173.634995 498.658722,172.824387 
	C497.560638,172.624008 497.223511,168.324631 496.497070,165.921463 
	C496.411743,165.639267 496.073914,165.433411 495.983917,165.335083 
	C492.586578,165.335083 489.329498,165.335083 485.786255,165.335083 
	C485.786255,169.805649 485.786255,173.951996 485.791870,179.006485 
M701.893616,147.623093 
	C701.956421,153.113510 701.896973,158.609192 702.132812,164.092163 
	C702.253357,166.893585 702.660156,169.734421 703.355347,172.450500 
	C706.494263,184.713776 718.101135,188.311478 732.538513,181.183258 
	C732.014465,177.346756 731.484863,173.469406 730.950623,169.558121 
	C728.284851,170.121948 726.195312,170.655869 724.074463,170.992523 
	C720.159180,171.614029 717.064453,170.058426 716.883972,166.062927 
	C716.498108,157.520432 716.765869,148.948410 716.765869,139.942993 
	C721.676758,139.942993 726.410522,139.942993 730.891235,139.942993 
	C730.891235,136.246643 730.891235,133.007660 730.891235,129.561310 
	C725.892639,129.561310 721.282410,129.561310 716.030945,129.561310 
	C716.030945,124.302101 716.030945,119.275322 716.030945,114.461273 
	C710.964539,114.461273 706.563843,114.461273 701.721313,114.461273 
	C701.721313,119.717682 701.721313,124.622017 701.721313,129.602371 
	C698.844177,129.739273 696.414124,129.854904 693.970520,129.971176 
	C693.970520,133.518494 693.970520,136.751129 693.970520,140.049728 
	C696.689270,140.182495 699.119873,140.301208 701.891968,140.436600 
	C701.891968,142.733917 701.891968,144.697586 701.893616,147.623093 
z"/>
<path fill="#F9F9F9" opacity="1.000000" stroke="none" 
	d="
M599.319702,140.456757 
	C595.549438,150.817978 591.812378,160.780396 588.394714,170.851196 
	C587.525574,173.412170 586.314026,174.425873 583.772827,174.085510 
	C583.609436,174.063629 583.440125,174.081909 583.273682,174.085693 
	C574.536255,174.284119 574.526672,174.287689 571.521301,166.046371 
	C567.284241,154.427292 563.063232,142.802383 558.465820,130.164078 
	C558.049438,131.722717 557.850647,132.120728 557.850098,132.518982 
	C557.833862,145.158936 557.836731,157.798904 557.836731,170.818115 
	C559.743469,170.911499 561.495789,170.997299 563.621094,171.101379 
	C563.621094,174.967804 563.621094,178.878555 563.621094,183.119324 
	C554.630676,183.119324 545.547302,183.119324 536.135254,183.119324 
	C536.135254,179.262222 536.135254,175.386810 536.135254,171.253204 
	C538.276123,171.066528 540.373779,170.883621 542.609436,170.688690 
	C542.609436,155.889175 542.609436,141.251495 542.609436,126.170685 
	C540.660339,125.973221 538.585999,125.763054 536.170898,125.518379 
	C536.170898,121.651619 536.170898,117.765526 536.170898,113.315880 
	C545.183167,113.315880 554.141663,113.160576 563.081970,113.493294 
	C564.337097,113.539993 566.027344,115.775818 566.626465,117.339279 
	C570.849182,128.357864 574.836792,139.466522 578.905884,150.544052 
	C579.408997,151.913620 579.950256,153.269150 580.848145,155.604935 
	C584.404236,145.993179 587.607300,137.226166 590.895386,128.491165 
	C592.759033,123.540314 593.469055,116.881393 597.077759,114.231018 
	C600.468567,111.740662 606.986511,113.473343 612.129333,113.413834 
	C616.585144,113.362267 621.042114,113.403114 625.740845,113.403114 
	C625.740845,117.558998 625.740845,121.319870 625.740845,125.492607 
	C623.627686,125.667465 621.564148,125.838211 619.305176,126.025131 
	C619.305176,140.951981 619.305176,155.709518 619.305176,170.797546 
	C621.345398,170.797546 623.267456,170.797546 625.581177,170.797546 
	C625.581177,175.014664 625.581177,178.911270 625.581177,183.142181 
	C616.569458,183.142181 607.485107,183.142181 598.163147,183.142181 
	C598.163147,179.248138 598.163147,175.480927 598.163147,171.335846 
	C599.891296,171.143967 601.636169,170.950226 603.722534,170.718567 
	C603.722534,157.345932 603.722534,143.928421 603.722534,128.947372 
	C601.980408,133.517136 600.725952,136.807663 599.319702,140.456757 
z"/>
<path fill="#FAFAFA" opacity="1.000000" stroke="none" 
	d="
M334.594696,183.448334 
	C326.664337,183.454010 319.188843,183.454010 311.453003,183.454010 
	C311.453003,179.828186 311.453003,176.613861 311.453003,173.162445 
	C313.597992,173.032791 315.543030,172.915222 317.813293,172.778000 
	C317.813293,155.336060 317.813293,137.960236 317.813293,120.258507 
	C315.695740,120.258507 313.750122,120.258507 311.523071,120.258507 
	C311.523071,116.708328 311.523071,113.480316 311.523071,110.004356 
	C318.457550,110.004356 325.209503,110.004356 332.169983,110.004356 
	C332.169983,118.125092 332.169983,126.092461 332.169983,132.950104 
	C337.715302,131.557068 343.284363,129.067368 348.884247,128.995987 
	C358.299866,128.875916 364.683136,135.212357 366.047394,144.587662 
	C366.715820,149.181320 366.796539,153.873215 366.940155,158.526932 
	C367.083038,163.158386 366.971466,167.797699 366.971466,172.752960 
	C369.310944,172.752960 371.243439,172.752960 373.525482,172.752960 
	C373.525482,176.315689 373.525482,179.558212 373.525482,183.142654 
	C366.855469,183.142654 360.092590,183.142654 352.656616,183.142654 
	C352.656616,175.472244 352.716736,167.700241 352.629364,159.929886 
	C352.590118,156.439499 352.503998,152.916321 352.002319,149.471634 
	C351.049286,142.927521 347.286957,139.627502 341.805115,140.096100 
	C337.337769,140.477951 332.449951,145.823181 332.329529,150.908310 
	C332.160126,158.062607 332.286682,165.223892 332.286682,172.713852 
	C334.631012,172.853638 336.749207,172.979950 339.131683,173.122025 
	C339.131683,176.299088 339.131683,179.418289 339.131683,183.107330 
	C337.845581,183.212967 336.447540,183.327805 334.594696,183.448334 
z"/>
<path fill="#F8F8F8" opacity="1.000000" stroke="none" 
	d="
M261.320557,161.370636 
	C268.912323,171.629364 281.028168,174.200989 294.315094,168.572052 
	C296.864594,167.491943 299.287628,166.113327 302.174866,164.669479 
	C303.154083,168.241348 304.263397,171.514923 304.846466,174.879684 
	C305.024323,175.906097 304.055328,177.615219 303.101593,178.280380 
	C290.930969,186.767960 268.731079,186.645920 256.614410,178.160797 
	C244.706192,169.821640 239.656204,152.670212 244.297607,136.328674 
	C248.168060,122.701477 259.787140,113.259850 275.063477,112.994919 
	C283.770203,112.843925 292.527222,114.706772 301.224701,115.925713 
	C302.439484,116.095955 304.365601,117.744125 304.398315,118.758560 
	C304.659668,126.868416 304.544281,134.990433 304.544281,143.431702 
	C299.650787,143.431702 295.093475,143.431702 290.328674,143.431702 
	C289.930756,138.857437 289.276062,134.573730 289.272766,130.289551 
	C289.270020,126.724678 287.747375,125.900566 284.504150,125.713745 
	C262.824768,124.464920 252.046860,140.672165 261.320557,161.370636 
z"/>
<path fill="#F8F8F8" opacity="1.000000" stroke="none" 
	d="
M684.598999,154.999969 
	C684.600830,161.143158 684.600830,166.786560 684.600830,172.752213 
	C686.775696,172.864365 688.711609,172.964203 691.067627,173.085693 
	C691.067627,176.275848 691.067627,179.491516 691.067627,183.112091 
	C684.522949,183.112091 677.785767,183.112091 670.620239,183.112091 
	C670.408386,181.899551 670.165588,180.509933 669.919678,179.115479 
	C669.608826,179.078445 669.195862,178.899933 669.008240,179.034821 
	C653.328552,190.310425 635.764099,183.716263 631.928772,164.744949 
	C630.897888,159.645432 630.789490,154.045090 631.687500,148.925461 
	C635.190857,128.952682 656.583191,123.461761 669.912354,134.909973 
	C670.103027,133.131546 670.260620,131.661560 670.440552,129.983948 
	C675.164978,129.983948 679.594910,129.983948 684.597229,129.983948 
	C684.597229,138.272400 684.597229,146.386292 684.598999,154.999969 
M661.822510,142.026093 
	C654.084961,141.428894 649.858887,143.419067 647.210327,148.907257 
	C644.354980,154.824219 645.596802,164.403549 649.768860,168.642563 
	C655.841797,174.813110 666.648682,172.913345 669.507690,164.824631 
	C670.563721,161.836670 669.907593,158.267975 670.194092,154.978226 
	C670.725342,148.877136 668.023621,144.791565 661.822510,142.026093 
z"/>
<path fill="#F8F8F7" opacity="1.000000" stroke="none" 
	d="
M429.095398,160.275101 
	C427.496460,161.003067 425.964050,161.579041 424.427277,161.590851 
	C413.957092,161.671265 403.485962,161.632935 392.950134,161.632935 
	C395.055939,173.500061 409.130615,175.438629 423.205109,165.750565 
	C424.198120,168.835144 425.322876,171.725189 425.983887,174.717667 
	C426.207764,175.731125 425.583923,177.332489 424.797852,178.108109 
	C413.384857,189.369125 387.532776,185.387756 380.121033,171.302856 
	C374.662170,160.929062 375.981628,146.192871 383.112457,137.893036 
	C389.818817,130.087341 402.876953,126.809319 413.405670,130.288498 
	C422.822021,133.400101 428.542694,141.394547 429.119995,152.371002 
	C429.251038,154.861832 429.152710,157.364716 429.095398,160.275101 
M404.532104,140.817459 
	C396.829559,141.236008 392.610657,145.330307 392.295715,152.658173 
	C400.516754,152.658173 408.735748,152.658173 416.966492,152.658173 
	C416.473450,144.995163 413.227142,141.754456 404.532104,140.817459 
z"/>
<path fill="#F8F8F8" opacity="1.000000" stroke="none" 
	d="
M735.853149,155.109955 
	C736.698059,130.644928 761.244568,124.827293 775.353271,131.449921 
	C781.637085,134.399536 785.603455,139.422485 786.931091,146.185043 
	C787.876953,151.003387 788.164307,155.951004 788.814941,161.424377 
	C775.968567,161.424377 764.054871,161.424377 752.144958,161.424377 
	C752.172974,171.664078 768.806458,177.004593 782.087463,165.565872 
	C783.167419,168.879791 784.524170,171.883423 784.980286,175.018112 
	C785.160706,176.258469 783.665894,178.381561 782.376099,179.096191 
	C771.626892,185.052048 760.433838,186.790131 749.020569,181.116608 
	C738.503357,175.888458 736.075073,166.232407 735.853149,155.109955 
M760.990967,140.891968 
	C754.509644,142.794876 751.414307,146.579102 751.325012,152.632751 
	C759.546204,152.632751 767.764709,152.632751 776.001892,152.632751 
	C775.228516,143.993622 771.445862,140.923599 760.990967,140.891968 
z"/>
<path fill="#38C1FF" opacity="1.000000" stroke="none" 
	d="
M161.112671,106.968559 
	C161.112671,106.968559 161.489044,106.886185 161.999954,106.926445 
	C162.999283,106.612549 163.487701,106.258385 163.976120,105.904221 
	C163.976120,105.904228 163.982040,105.981972 164.275208,105.964630 
	C165.075989,105.590889 165.583618,105.234482 166.091248,104.878067 
	C166.091248,104.878067 166.205841,104.783722 166.670410,104.836899 
	C167.667816,104.439095 168.200653,103.988121 168.733490,103.537140 
	C168.733490,103.537148 168.799835,103.687607 169.020294,103.684700 
	C169.521881,103.413216 169.803024,103.144638 170.084167,102.876060 
	C170.084167,102.876060 170.192001,102.782402 170.657516,102.833496 
	C171.649658,102.429375 172.176300,101.974167 172.702927,101.518959 
	C172.702927,101.518959 173.061707,101.807693 173.245239,101.822624 
	C173.955475,101.887428 174.482147,101.937294 175.251373,102.264435 
	C178.618912,102.027275 181.740234,101.121857 184.869751,101.092705 
	C189.243912,101.051971 193.624176,101.664993 197.961395,102.365135 
	C195.280228,108.820915 192.639511,114.909851 189.623169,120.993790 
	C184.922714,119.659195 180.567444,117.157097 176.280029,117.268402 
	C169.452118,117.445671 162.706497,120.005081 155.859222,120.400955 
	C144.551300,121.054733 133.225677,122.366364 121.893143,119.062172 
	C116.566055,117.508965 110.595123,118.072258 104.909073,117.870659 
	C100.272636,117.706268 95.469208,118.573952 91.024025,117.636459 
	C85.627434,116.498299 80.679253,114.681564 77.269020,121.730316 
	C75.389496,119.599525 74.279190,117.973343 72.814011,116.784554 
	C71.388947,115.628311 69.600250,114.920242 67.711960,113.796661 
	C66.961433,112.057922 66.470177,110.537903 66.233902,108.820381 
	C66.629478,107.251526 66.770088,105.880188 66.899757,104.615601 
	C69.538162,104.779419 71.864578,104.948158 74.193672,105.062279 
	C77.041214,105.201797 79.928413,105.046432 82.731026,105.467506 
	C86.913429,106.095856 91.017677,107.248581 95.201851,107.857628 
	C96.028381,107.977928 97.065979,106.648224 98.392990,105.991882 
	C99.551994,105.967049 100.324265,105.937553 101.096535,105.908051 
	C101.096535,105.908051 101.021606,105.978111 101.155975,106.183731 
	C101.631729,106.501175 101.973106,106.612991 102.314484,106.724808 
	C102.314484,106.724808 102.102623,106.863708 102.116043,107.183258 
	C102.735298,111.856796 105.852623,110.024170 107.818596,109.414696 
	C110.643288,108.539017 113.223152,106.874336 115.908607,105.548645 
	C121.504745,102.786087 127.002396,101.409607 133.588242,102.675430 
	C140.876801,104.076324 148.522659,103.618431 156.311249,104.123810 
	C158.110626,105.174583 159.611649,106.071571 161.112671,106.968559 
z"/>
<path fill="#F7F7F7" opacity="1.000000" stroke="none" 
	d="
M458.079651,184.484116 
	C451.403595,183.488159 445.153687,182.554794 438.913361,181.561157 
	C436.491699,181.175568 435.156036,180.014633 435.338104,177.201126 
	C435.583893,173.403519 435.399170,169.578033 435.399170,165.409714 
	C439.085388,165.409714 442.478485,165.409714 445.934174,165.409714 
	C446.076447,165.612625 446.343597,165.857285 446.443420,166.157593 
	C447.224945,168.508713 447.618439,172.672806 448.797577,172.905670 
	C453.074127,173.750259 457.744476,173.945969 462.007690,173.093506 
	C465.506226,172.393890 465.933838,168.382568 462.933777,166.167770 
	C460.584656,164.433502 457.663788,163.454880 454.957489,162.227570 
	C450.580292,160.242477 445.931396,158.729263 441.836487,156.281815 
	C436.918823,153.342560 434.398438,148.564606 435.267426,142.713028 
	C436.118683,136.980621 439.559875,133.085678 445.088806,131.184357 
	C454.768127,127.855766 464.477844,128.408676 474.029083,131.527466 
	C475.486023,132.003220 477.056091,134.335464 477.267395,135.977173 
	C477.748871,139.718201 477.419342,143.563583 477.419342,147.586182 
	C473.794739,147.586182 470.697906,147.586182 467.728943,147.586182 
	C467.405304,147.126053 467.138672,146.893112 467.056519,146.607162 
	C466.362610,144.191605 466.018097,139.852966 464.976410,139.681076 
	C460.849335,139.000122 456.304535,138.881226 452.303955,139.976425 
	C448.557861,141.001953 448.745361,146.092621 452.636627,148.083282 
	C457.795380,150.722351 463.469574,152.369507 468.570862,155.099533 
	C471.815308,156.835831 475.180115,159.261185 477.165741,162.256195 
	C482.162689,169.793121 478.735138,179.255798 470.199493,182.191238 
	C466.475983,183.471771 462.416504,183.775375 458.079651,184.484116 
z"/>
<path fill="#F7F7F7" opacity="1.000000" stroke="none" 
	d="
M485.789062,178.552414 
	C485.786255,173.951996 485.786255,169.805649 485.786255,165.335083 
	C489.329498,165.335083 492.586578,165.335083 495.983917,165.335083 
	C496.073914,165.433411 496.411743,165.639267 496.497070,165.921463 
	C497.223511,168.324631 497.560638,172.624008 498.658722,172.824387 
	C503.100983,173.634995 507.885620,173.801331 512.322876,172.992691 
	C515.508362,172.412140 515.998962,168.425339 513.260559,166.351776 
	C510.808380,164.494873 507.737823,163.431305 504.891449,162.123642 
	C500.529877,160.119873 495.902008,158.586166 491.799530,156.156631 
	C487.011444,153.321075 484.773346,148.645935 485.365662,142.999817 
	C485.964478,137.291367 489.468079,133.641434 494.582764,131.578796 
	C504.665527,127.512695 514.836060,128.573334 524.891541,131.689148 
	C526.040039,132.045013 527.369141,133.897598 527.475281,135.152557 
	C527.808655,139.094101 527.597900,143.081680 527.597900,147.422195 
	C524.182739,147.422195 521.107422,147.422195 517.878601,147.422195 
	C517.828125,147.376328 517.449768,147.199249 517.366943,146.930939 
	C516.580750,144.382584 516.284180,139.908066 515.012329,139.615555 
	C511.108765,138.717773 506.803192,139.157043 502.730438,139.676468 
	C501.625885,139.817322 499.920074,142.171005 500.041565,143.349075 
	C500.216980,145.050217 501.426331,147.353271 502.864136,148.086609 
	C507.728912,150.567780 512.886230,152.476349 517.936340,154.592819 
	C522.686951,156.583817 526.578918,159.355179 528.469727,164.511185 
	C530.876038,171.072876 528.819336,178.187363 522.558899,181.194031 
	C510.420502,187.023743 498.256989,184.049561 486.222748,180.372498 
	C485.964142,180.293472 485.930450,179.478256 485.789062,178.552414 
z"/>
<path fill="#FBFBFB" opacity="1.000000" stroke="none" 
	d="
M701.892822,147.142181 
	C701.891968,144.697586 701.891968,142.733917 701.891968,140.436600 
	C699.119873,140.301208 696.689270,140.182495 693.970520,140.049728 
	C693.970520,136.751129 693.970520,133.518494 693.970520,129.971176 
	C696.414124,129.854904 698.844177,129.739273 701.721313,129.602371 
	C701.721313,124.622017 701.721313,119.717682 701.721313,114.461273 
	C706.563843,114.461273 710.964539,114.461273 716.030945,114.461273 
	C716.030945,119.275322 716.030945,124.302101 716.030945,129.561310 
	C721.282410,129.561310 725.892639,129.561310 730.891235,129.561310 
	C730.891235,133.007660 730.891235,136.246643 730.891235,139.942993 
	C726.410522,139.942993 721.676758,139.942993 716.765869,139.942993 
	C716.765869,148.948410 716.498108,157.520432 716.883972,166.062927 
	C717.064453,170.058426 720.159180,171.614029 724.074463,170.992523 
	C726.195312,170.655869 728.284851,170.121948 730.950623,169.558121 
	C731.484863,173.469406 732.014465,177.346756 732.538513,181.183258 
	C718.101135,188.311478 706.494263,184.713776 703.355347,172.450500 
	C702.660156,169.734421 702.253357,166.893585 702.132812,164.092163 
	C701.896973,158.609192 701.956421,153.113510 701.892822,147.142181 
z"/>
<path fill="#21CDF9" opacity="1.000000" stroke="none" 
	d="
M81.788948,192.758957 
	C87.071518,188.925522 92.986847,187.116745 99.502548,187.113876 
	C120.830383,187.104462 142.158905,187.155228 163.485641,186.988815 
	C170.726517,186.932327 177.278946,188.782135 183.415283,192.841278 
	C183.444962,193.161774 183.088638,193.250412 182.690857,193.176147 
	C176.801300,192.395859 180.706009,196.797729 179.287109,198.678391 
	C178.658936,198.722778 177.862457,198.890335 177.088913,198.816818 
	C167.411499,197.897186 157.754135,196.624252 148.056274,196.115417 
	C142.152252,195.805649 136.184723,196.968628 130.249969,196.922409 
	C120.410393,196.845795 110.565140,196.477936 100.743553,195.882004 
	C98.502525,195.746033 95.686623,194.751190 94.300468,193.145691 
	C91.882217,190.344772 89.599358,190.719070 86.797211,191.768356 
	C85.283432,192.335190 83.692078,192.694824 82.048386,193.051285 
	C81.961037,192.954620 81.788948,192.758957 81.788948,192.758957 
z"/>
<path fill="#1DE3FE" opacity="1.000000" stroke="none" 
	d="
M183.088638,193.250412 
	C183.088638,193.250412 183.444962,193.161774 183.620178,193.106598 
	C189.619446,197.868927 194.951294,203.024002 196.098358,211.838898 
	C196.062164,216.450363 196.053726,220.253098 196.045288,224.055832 
	C196.045288,224.055832 195.999634,224.001877 195.608185,224.065720 
	C192.768921,224.446732 190.321548,225.036224 187.873245,225.040176 
	C151.420807,225.098984 114.968018,225.137436 78.516098,224.988205 
	C75.024261,224.973923 71.537682,223.676270 68.048653,222.974426 
	C68.048653,222.974426 67.993790,222.987457 68.027534,222.555969 
	C67.734253,220.085770 67.407227,218.047028 67.080200,216.008301 
	C67.931870,212.873550 68.783546,209.738815 70.095436,206.319519 
	C70.555656,206.034958 71.019608,206.050446 71.069855,206.454834 
	C71.414062,209.481125 71.789696,212.097046 71.983040,214.726364 
	C72.280457,218.771057 74.142052,220.049133 78.207352,219.476105 
	C83.049950,218.793518 87.962120,217.994888 92.816902,218.142578 
	C101.409325,218.403931 109.972000,219.713150 118.563377,219.925079 
	C140.846039,220.474762 163.137161,220.696335 185.425735,220.983429 
	C192.720139,221.077377 194.656235,218.691513 191.992325,211.903519 
	C189.481735,205.506348 186.091751,199.454285 183.088638,193.250412 
z"/>
<path fill="#3EBEFD" opacity="1.000000" stroke="none" 
	d="
M156.012909,103.970032 
	C148.522659,103.618431 140.876801,104.076324 133.588242,102.675430 
	C127.002396,101.409607 121.504745,102.786087 115.908607,105.548645 
	C113.223152,106.874336 110.643288,108.539017 107.818596,109.414696 
	C105.852623,110.024170 102.735298,111.856796 102.203110,107.091248 
	C102.616997,106.722290 102.957253,106.764885 103.813019,106.798096 
	C104.540779,106.501884 104.753014,106.215065 104.965256,105.928246 
	C104.965256,105.928246 104.996544,105.994354 105.318512,105.939232 
	C106.084267,104.910591 106.528061,103.937080 106.971848,102.963562 
	C106.971848,102.963562 107.002853,102.995987 107.332764,102.942947 
	C108.097404,101.919090 108.532127,100.948280 108.966850,99.977470 
	C108.966850,99.977470 109.000160,99.995995 109.336349,99.941574 
	C110.100693,98.910049 110.528847,97.932945 110.957001,96.955841 
	C110.957008,96.955841 110.999695,97.000000 111.326797,96.942680 
	C112.089165,95.913147 112.524437,94.940933 112.959702,93.968719 
	C112.959702,93.968719 113.000412,93.996475 113.331573,93.941345 
	C114.098160,92.914673 114.533577,91.943123 114.968994,90.971581 
	C114.968994,90.971581 115.000000,91.000000 115.329636,90.965378 
	C116.778526,89.625061 117.897774,88.319366 119.408577,87.001648 
	C123.421555,86.014816 127.007622,84.866608 130.675339,84.118828 
	C133.731842,83.495667 136.884109,83.342308 140.297241,83.139626 
	C144.291473,88.621498 147.467575,94.449265 154.009293,96.978088 
	C154.009293,96.978088 154.003098,96.994919 154.001053,97.370567 
	C154.670319,99.820824 155.341614,101.895424 156.012909,103.970032 
z"/>
<path fill="#39D0FA" opacity="1.000000" stroke="none" 
	d="
M188.105011,143.226624 
	C186.671326,148.112930 185.812454,153.293198 183.534363,157.747665 
	C182.558655,159.655502 178.641479,160.957626 176.039841,160.993027 
	C155.414536,161.273666 134.784180,161.182327 114.155365,161.206024 
	C106.669090,161.214630 99.182808,161.230118 91.696533,161.233932 
	C82.474228,161.238617 80.930481,160.117874 78.113693,151.485947 
	C75.422997,143.240402 72.712746,135.001221 70.287888,126.152557 
	C70.696869,124.698990 70.829048,123.852127 71.315392,123.058365 
	C73.113754,126.074203 74.557945,129.036926 76.010056,132.405212 
	C77.305084,137.937912 78.542496,143.078156 79.892838,148.188568 
	C81.334206,153.643494 84.559013,156.014771 90.232895,156.002945 
	C97.133362,155.988556 104.034470,155.941025 110.934280,156.009735 
	C131.027847,156.209824 151.120483,156.515564 171.214325,156.668823 
	C181.447769,156.746887 181.459503,156.641937 184.217422,145.713257 
	C184.862991,143.155090 185.407288,140.571365 186.041534,137.625107 
	C187.057419,134.167114 188.029922,131.083405 189.383301,127.999763 
	C190.525833,128.003357 191.287537,128.006897 192.030579,128.405823 
	C190.709625,133.609695 189.407318,138.418152 188.105011,143.226624 
z"/>
<path fill="#4AB7F1" opacity="1.000000" stroke="none" 
	d="
M100.909119,105.617416 
	C100.324265,105.937553 99.551994,105.967049 98.183762,105.717392 
	C95.086456,104.187439 92.610977,102.881348 90.078957,101.696030 
	C82.039017,97.932297 74.025818,94.102890 65.879074,90.584122 
	C64.486565,89.982674 62.488529,90.783157 60.770226,90.935997 
	C61.010067,92.307114 61.281834,93.673607 61.481457,95.050560 
	C61.717220,96.676773 61.890633,98.312035 61.993889,100.017197 
	C61.896706,100.091026 61.706081,100.243492 61.706078,100.243492 
	C60.994347,98.427307 60.282612,96.611115 59.568459,94.795990 
	C51.119804,96.921188 45.386848,94.992203 42.056713,88.905663 
	C39.219418,83.719894 40.422848,76.945320 44.881695,73.002769 
	C49.761646,68.687874 56.201878,68.301376 61.388100,72.012169 
	C66.499054,75.669113 68.009346,81.769302 65.596191,87.983597 
	C77.326637,93.775497 89.024170,99.551140 100.909119,105.617416 
z"/>
<path fill="#30C0E4" opacity="1.000000" stroke="none" 
	d="
M89.899773,168.925064 
	C91.568863,168.455780 93.235619,167.586960 94.907402,167.577148 
	C119.888062,167.430634 144.869385,167.374329 169.850586,167.356873 
	C174.985489,167.353287 178.661758,170.428452 178.497528,174.305145 
	C178.325378,178.368500 174.914322,180.907181 169.519547,180.911072 
	C144.704559,180.928986 119.889420,180.887192 95.074791,180.984634 
	C91.361526,180.999222 87.951965,180.063904 87.149925,176.455490 
	C86.661911,174.259842 88.479530,171.551743 89.584412,169.345459 
	C89.371521,170.898026 88.835693,172.178970 87.959335,174.273972 
	C91.709755,174.918549 94.902985,175.892136 98.110847,175.942978 
	C110.083626,176.132782 122.062523,175.913208 134.036453,176.062088 
	C140.925400,176.147720 147.823074,176.472534 154.690323,177.021362 
	C159.086807,177.372726 163.415283,178.633148 167.811005,178.917038 
	C171.261871,179.139908 175.276947,174.985916 174.921814,172.001984 
	C174.387115,167.509598 170.726944,169.058014 168.239243,169.046890 
	C142.126419,168.930008 116.013016,168.945892 89.899773,168.925064 
z"/>
<path fill="#46B8F4" opacity="1.000000" stroke="none" 
	d="
M198.001831,101.998291 
	C193.624176,101.664993 189.243912,101.051971 184.869751,101.092705 
	C181.740234,101.121857 178.618912,102.027275 175.457581,102.006805 
	C176.267166,100.624138 177.113083,99.776382 177.958984,98.928635 
	C177.958984,98.928627 177.983231,99.001854 178.338745,98.989700 
	C179.784500,98.297394 180.874741,97.617241 181.964981,96.937080 
	C181.964981,96.937080 181.983078,97.004524 182.343597,96.991943 
	C183.810791,96.290794 184.917465,95.602234 186.024139,94.913666 
	C186.024139,94.913666 186.153061,94.780045 186.656250,94.846481 
	C188.088882,94.247124 189.018295,93.581329 189.947708,92.915527 
	C189.947708,92.915527 189.991928,92.993057 190.266113,92.961472 
	C191.017166,92.594437 191.494049,92.258995 191.970932,91.923553 
	C191.970932,91.923553 191.985947,91.996689 192.268875,91.963501 
	C193.023392,91.586533 193.494965,91.242752 193.966537,90.898972 
	C193.966537,90.898972 193.978088,90.980621 194.309082,90.977005 
	C196.103851,90.411858 197.567612,89.850327 199.031357,89.288803 
	C199.031357,89.288795 199.293686,89.046921 199.685455,88.946472 
	C199.571625,87.229523 199.066040,85.613014 198.560455,83.996506 
	C198.471573,83.527290 198.382690,83.058075 198.526337,82.017487 
	C198.800827,81.104729 198.842819,80.763336 198.884796,80.421944 
	C198.884796,80.421944 198.740997,80.237312 199.094681,79.931511 
	C199.601395,78.710114 199.754425,77.794518 199.907455,76.878922 
	C199.907455,76.878922 199.945282,76.956024 200.173630,76.818451 
	C200.596878,76.127060 200.791794,75.573257 200.986710,75.019455 
	C200.986710,75.019455 200.986633,74.992271 201.218872,74.875244 
	C201.719955,74.542992 201.888428,74.266571 201.956528,73.928940 
	C201.956528,73.928940 201.994873,73.994217 202.193573,73.882027 
	C202.582932,73.503654 202.773590,73.237465 202.964264,72.971283 
	C202.964264,72.971283 202.997391,72.994316 203.383347,72.986214 
	C208.251099,72.626389 212.732880,72.274666 217.214676,71.922943 
	C217.214676,71.922943 217.606079,71.908600 217.798889,72.383209 
	C218.510986,75.950401 218.751602,79.123169 219.613144,82.117264 
	C220.997101,86.926880 218.862747,90.000481 214.895950,91.780510 
	C212.084686,93.042000 208.842865,93.344025 205.793243,94.074326 
	C205.203781,95.599007 204.614319,97.123695 203.482239,98.938553 
	C201.293686,100.151909 199.647751,101.075096 198.001831,101.998291 
z"/>
<path fill="#4FB0F1" opacity="1.000000" stroke="none" 
	d="
M122.967453,47.930443 
	C123.135529,47.653202 123.303596,47.375965 124.112396,47.038185 
	C130.183426,43.980518 135.631683,45.342495 141.080795,46.910385 
	C141.080795,46.910385 141.027664,47.005390 141.142746,47.193169 
	C141.541840,47.562263 141.825867,47.743587 142.109879,47.924911 
	C142.109879,47.924911 142.002594,47.953667 142.012878,48.314182 
	C141.029816,50.808372 138.702087,53.437843 139.278183,54.988358 
	C141.555115,61.116306 137.465057,64.110191 134.011444,68.289841 
	C129.790146,65.417809 125.034332,63.232258 121.921883,59.627705 
	C120.332069,57.786533 121.690720,53.401302 121.706894,50.165905 
	C121.707687,50.007286 121.614258,49.848202 121.564713,49.689335 
	C121.564713,49.689335 121.662003,49.594856 121.929062,49.604134 
	C122.453239,49.052422 122.710350,48.491432 122.967453,47.930443 
z"/>
<path fill="#2BCBD2" opacity="1.000000" stroke="none" 
	d="
M68.115036,223.325348 
	C71.537682,223.676270 75.024261,224.973923 78.516098,224.988205 
	C114.968018,225.137436 151.420807,225.098984 187.873245,225.040176 
	C190.321548,225.036224 192.768921,224.446732 195.636658,224.086472 
	C193.902725,224.982056 191.752380,226.729767 189.594452,226.739182 
	C151.597214,226.904892 113.598763,226.917938 75.601814,226.721527 
	C73.123177,226.708710 70.654648,224.736862 68.115036,223.325348 
z"/>
<path fill="#54B5F1" opacity="1.000000" stroke="none" 
	d="
M121.298111,49.923286 
	C121.614258,49.848202 121.707687,50.007286 121.706894,50.165905 
	C121.690720,53.401302 120.332069,57.786533 121.921883,59.627705 
	C125.034332,63.232258 129.790146,65.417809 134.011444,68.289841 
	C137.465057,64.110191 141.555115,61.116306 139.278183,54.988358 
	C138.702087,53.437843 141.029816,50.808372 142.066650,48.290863 
	C148.025360,54.858177 146.346725,63.893818 138.378555,68.249542 
	C136.995605,69.005531 135.751465,70.015457 134.081604,71.310730 
	C133.504761,71.866013 133.266998,71.968262 132.583405,72.013931 
	C131.031372,71.979828 129.902634,71.951935 128.773911,71.924042 
	C128.293808,70.901566 128.093109,69.396896 127.290146,68.931641 
	C119.743607,64.558990 117.605927,58.355625 121.298111,49.923286 
z"/>
<path fill="#4BB7F4" opacity="1.000000" stroke="none" 
	d="
M128.478241,72.062561 
	C129.902634,71.951935 131.031372,71.979828 132.618195,72.360100 
	C135.382202,76.135277 137.688080,79.558075 139.993973,82.980865 
	C136.884109,83.342308 133.731842,83.495667 130.675339,84.118828 
	C127.007622,84.866608 123.421555,86.014816 119.318977,86.799416 
	C118.679207,86.347107 118.457146,86.160538 118.171631,86.049500 
	C118.165215,85.710907 118.287514,85.427948 119.096252,85.040245 
	C120.080589,83.905510 120.507217,82.931152 120.933838,81.956795 
	C120.933838,81.956795 120.998329,81.995476 121.205658,81.846169 
	C121.532738,81.373352 121.652496,81.049843 121.772263,80.726341 
	C121.772263,80.726341 121.813248,80.847214 122.058372,80.741478 
	C122.519669,80.064774 122.735847,79.493813 122.952026,78.922844 
	C124.695549,76.682259 126.439072,74.441673 128.478241,72.062561 
z"/>
<path fill="#4EBEF4" opacity="1.000000" stroke="none" 
	d="
M206.051178,94.358070 
	C208.842865,93.344025 212.084686,93.042000 214.895950,91.780510 
	C218.862747,90.000481 220.997101,86.926880 219.613144,82.117264 
	C218.751602,79.123169 218.510986,75.950401 217.986572,72.439026 
	C223.920715,74.926613 226.112991,81.282211 223.384781,87.684952 
	C220.421387,94.639641 213.678406,97.386826 206.051178,94.358070 
z"/>
<path fill="#51BCF2" opacity="1.000000" stroke="none" 
	d="
M140.297241,83.139626 
	C137.688080,79.558075 135.382202,76.135277 133.041504,72.366302 
	C133.266998,71.968262 133.504761,71.866013 133.789383,71.610619 
	C136.154007,73.177856 139.031494,74.419518 140.634567,76.598679 
	C145.318329,82.965637 149.493652,89.706635 153.938766,96.639557 
	C147.467575,94.449265 144.291473,88.621498 140.297241,83.139626 
z"/>
<path fill="#40C9FC" opacity="1.000000" stroke="none" 
	d="
M197.961395,102.365128 
	C199.647751,101.075096 201.293686,100.151909 203.304169,99.195419 
	C203.566788,99.582748 203.464844,100.003395 202.915588,100.932251 
	C202.361572,102.127991 202.254883,102.815521 202.148193,103.503052 
	C201.818573,103.841057 201.488968,104.179062 200.819458,104.980515 
	C197.669449,112.966118 194.859344,120.488274 192.049225,128.010422 
	C191.287537,128.006897 190.525833,128.003357 189.382721,127.597153 
	C189.333771,125.129242 189.666275,123.064011 189.998779,120.998779 
	C192.639511,114.909851 195.280228,108.820915 197.961395,102.365128 
z"/>
<path fill="#51C8E9" opacity="1.000000" stroke="none" 
	d="
M192.030579,128.405823 
	C194.859344,120.488274 197.669449,112.966118 200.755127,105.213684 
	C199.463028,110.467873 198.055069,116.004410 196.288422,121.424034 
	C193.930435,128.657761 191.293884,135.800674 188.440979,143.104614 
	C189.407318,138.418152 190.709625,133.609695 192.030579,128.405823 
z"/>
<path fill="#54B5F1" opacity="1.000000" stroke="none" 
	d="
M140.917786,46.597946 
	C135.631683,45.342495 130.183426,43.980518 124.356056,46.977188 
	C129.699844,42.228073 133.931717,42.053913 140.917786,46.597946 
z"/>
<path fill="#4AB7F1" opacity="1.000000" stroke="none" 
	d="
M70.961227,123.005257 
	C70.829048,123.852127 70.696869,124.698990 70.326675,125.766830 
	C68.295029,120.708176 66.501389,115.428558 64.763504,109.660080 
	C64.819267,109.171219 65.066925,108.935135 65.293991,108.963104 
	C65.521065,108.991074 65.978928,109.017891 65.978928,109.017891 
	C66.470177,110.537903 66.961433,112.057922 67.723549,114.163223 
	C68.334290,116.161545 68.674156,117.574577 69.032089,119.286255 
	C69.360199,120.064346 69.670242,120.543800 70.003059,121.316536 
	C70.337631,122.074966 70.649429,122.540115 70.961227,123.005257 
z"/>
<path fill="#51BCF2" opacity="1.000000" stroke="none" 
	d="
M217.084625,71.582169 
	C212.732880,72.274666 208.251099,72.626389 203.373993,72.968208 
	C207.241287,69.162384 211.835220,68.063423 217.084625,71.582169 
z"/>
<path fill="#2BCBD2" opacity="1.000000" stroke="none" 
	d="
M196.360260,223.900940 
	C196.053726,220.253098 196.062164,216.450363 196.079285,212.220886 
	C198.572449,215.665665 199.815399,219.598175 196.360260,223.900940 
z"/>
<path fill="#51BCF2" opacity="1.000000" stroke="none" 
	d="
M156.311249,104.123810 
	C155.341614,101.895424 154.670319,99.820824 154.009705,97.371323 
	C156.243759,100.139526 158.467148,103.282631 160.901596,106.697144 
	C159.611649,106.071571 158.110626,105.174583 156.311249,104.123810 
z"/>
<path fill="#4AB7F1" opacity="1.000000" stroke="none" 
	d="
M117.922646,86.265137 
	C118.457146,86.160538 118.679207,86.347107 118.927422,86.811432 
	C117.897774,88.319366 116.778526,89.625061 115.313889,90.950882 
	C115.870209,89.474266 116.771935,87.977524 117.922646,86.265137 
z"/>
<path fill="#51BCF2" opacity="1.000000" stroke="none" 
	d="
M177.622589,98.964264 
	C177.113083,99.776382 176.267166,100.624138 175.215042,101.729523 
	C174.482147,101.937294 173.955475,101.887428 173.057281,101.689941 
	C174.219238,100.694855 175.752716,99.847374 177.622589,98.964264 
z"/>
<path fill="#4AB7F1" opacity="1.000000" stroke="none" 
	d="
M64.693390,109.287071 
	C63.931595,107.632378 63.295685,105.861839 62.746738,103.627518 
	C62.833698,103.163742 63.066696,102.956444 63.328690,103.194901 
	C64.082764,105.267281 64.574844,107.101204 65.066925,108.935135 
	C65.066925,108.935135 64.819267,109.171219 64.693390,109.287071 
z"/>
<path fill="#51BCF2" opacity="1.000000" stroke="none" 
	d="
M198.502930,84.368462 
	C199.066040,85.613014 199.571625,87.229523 199.857574,88.993385 
	C199.240433,87.673965 198.842911,86.207191 198.502930,84.368462 
z"/>
<path fill="#2BCBD2" opacity="1.000000" stroke="none" 
	d="
M66.977913,216.411331 
	C67.407227,218.047028 67.734253,220.085770 68.047119,222.535614 
	C67.647186,220.902618 67.261406,218.858490 66.977913,216.411331 
z"/>
<path fill="#21CDF9" opacity="1.000000" stroke="none" 
	d="
M74.819901,198.813705 
	C75.606285,197.873581 76.392670,196.933472 77.559464,195.965210 
	C77.939865,195.937088 78.124748,196.096786 78.049515,196.420639 
	C77.017960,197.542419 76.061638,198.340347 75.036064,199.055298 
	C74.966820,198.972290 74.819901,198.813705 74.819901,198.813705 
z"/>
<path fill="#51BCF2" opacity="1.000000" stroke="none" 
	d="
M198.684326,89.216537 
	C197.567612,89.850327 196.103851,90.411858 194.275558,90.953003 
	C195.386459,90.336510 196.861877,89.740387 198.684326,89.216537 
z"/>
<path fill="#51BCF2" opacity="1.000000" stroke="none" 
	d="
M185.690689,94.951218 
	C184.917465,95.602234 183.810791,96.290794 182.318436,96.967720 
	C183.074249,96.300308 184.215744,95.644539 185.690689,94.951218 
z"/>
<path fill="#51BCF2" opacity="1.000000" stroke="none" 
	d="
M181.635071,96.964676 
	C180.874741,97.617241 179.784500,98.297394 178.310028,98.963951 
	C179.052246,98.297661 180.178711,97.644966 181.635071,96.964676 
z"/>
<path fill="#4AB7F1" opacity="1.000000" stroke="none" 
	d="
M120.669754,82.118340 
	C120.507217,82.931152 120.080589,83.905510 119.303772,84.925537 
	C119.437599,84.074104 119.921631,83.176994 120.669754,82.118340 
z"/>
<path fill="#21CDF9" opacity="1.000000" stroke="none" 
	d="
M78.851456,194.841034 
	C79.628258,194.189270 80.405075,193.537506 81.485420,192.822342 
	C81.788948,192.758957 81.961037,192.954620 81.943604,193.366791 
	C80.986954,194.237000 80.047729,194.695038 79.046188,195.073486 
	C78.983856,194.993881 78.851456,194.841049 78.851456,194.841034 
z"/>
<path fill="#21CDF9" opacity="1.000000" stroke="none" 
	d="
M71.019608,206.050446 
	C71.019608,206.050446 70.555656,206.034958 70.323608,206.027679 
	C70.494804,205.075912 70.898041,204.131439 71.643127,203.081680 
	C71.984970,202.976410 72.139381,203.090958 72.097473,203.419586 
	C71.710243,204.515640 71.364929,205.283035 71.019608,206.050446 
z"/>
<path fill="#4AB7F1" opacity="1.000000" stroke="none" 
	d="
M114.705551,91.134880 
	C114.533577,91.943123 114.098160,92.914673 113.312561,93.924088 
	C113.455620,93.074028 113.948875,92.186104 114.705551,91.134880 
z"/>
<path fill="#51BCF2" opacity="1.000000" stroke="none" 
	d="
M189.601776,92.956116 
	C189.018295,93.581329 188.088882,94.247124 186.745270,94.872864 
	C187.306000,94.220772 188.280914,93.608734 189.601776,92.956116 
z"/>
<path fill="#4AB7F1" opacity="1.000000" stroke="none" 
	d="
M108.699570,100.136101 
	C108.532127,100.948280 108.097404,101.919090 107.313232,102.933105 
	C107.453278,102.082443 107.942787,101.188583 108.699570,100.136101 
z"/>
<path fill="#4AB7F1" opacity="1.000000" stroke="none" 
	d="
M106.708389,103.126373 
	C106.528061,103.937080 106.084267,104.910591 105.287750,105.919449 
	C105.438332,105.066254 105.941628,104.177719 106.708389,103.126373 
z"/>
<path fill="#4AB7F1" opacity="1.000000" stroke="none" 
	d="
M112.692795,94.127098 
	C112.524437,94.940933 112.089165,95.913147 111.302841,96.923424 
	C111.443146,96.069481 111.934509,95.177483 112.692795,94.127098 
z"/>
<path fill="#4AB7F1" opacity="1.000000" stroke="none" 
	d="
M110.691833,97.117416 
	C110.528847,97.932945 110.100693,98.910049 109.322128,99.927628 
	C109.456696,99.071724 109.941673,98.175362 110.691833,97.117416 
z"/>
<path fill="#4AB7F1" opacity="1.000000" stroke="none" 
	d="
M62.721043,103.271561 
	C62.320148,102.554878 62.031910,101.730385 61.724876,100.574692 
	C61.706081,100.243492 61.896706,100.091026 62.226173,100.248352 
	C62.725990,101.255936 62.896339,102.106186 63.066696,102.956444 
	C63.066696,102.956444 62.833698,103.163742 62.721043,103.271561 
z"/>
<path fill="#51BCF2" opacity="1.000000" stroke="none" 
	d="
M199.637650,77.103256 
	C199.754425,77.794518 199.601395,78.710114 199.160248,79.834595 
	C199.037369,79.138176 199.202606,78.232880 199.637650,77.103256 
z"/>
<path fill="#51BCF2" opacity="1.000000" stroke="none" 
	d="
M193.665771,90.920013 
	C193.494965,91.242752 193.023392,91.586533 192.240845,91.938843 
	C192.408279,91.611931 192.886642,91.276489 193.665771,90.920013 
z"/>
<path fill="#51BCF2" opacity="1.000000" stroke="none" 
	d="
M163.668640,105.918488 
	C163.487701,106.258385 162.999283,106.612549 162.188446,106.966202 
	C162.364395,106.621384 162.862778,106.277069 163.668640,105.918488 
z"/>
<path fill="#51BCF2" opacity="1.000000" stroke="none" 
	d="
M191.668701,91.935577 
	C191.494049,92.258995 191.017166,92.594437 190.229889,92.935394 
	C190.401810,92.609810 190.884155,92.278709 191.668701,91.935577 
z"/>
<path fill="#51BCF2" opacity="1.000000" stroke="none" 
	d="
M165.767654,104.881943 
	C165.583618,105.234482 165.075989,105.590889 164.242996,105.942673 
	C164.426437,105.587303 164.935257,105.236557 165.767654,104.881943 
z"/>
<path fill="#46B8F4" opacity="1.000000" stroke="none" 
	d="
M202.388702,103.249886 
	C202.254883,102.815521 202.361572,102.127991 202.737396,101.208298 
	C202.880737,101.649658 202.754959,102.323189 202.388702,103.249886 
z"/>
<path fill="#51BCF2" opacity="1.000000" stroke="none" 
	d="
M172.358063,101.583885 
	C172.176300,101.974167 171.649658,102.429375 170.726257,102.852814 
	C170.890732,102.430298 171.451965,102.039558 172.358063,101.583885 
z"/>
<path fill="#4AB7F1" opacity="1.000000" stroke="none" 
	d="
M122.693497,79.070930 
	C122.735847,79.493813 122.519669,80.064774 121.996284,80.726730 
	C121.937698,80.284821 122.186333,79.751923 122.693497,79.070930 
z"/>
<path fill="#51BCF2" opacity="1.000000" stroke="none" 
	d="
M200.736450,75.176903 
	C200.791794,75.573257 200.596878,76.127060 200.130707,76.817093 
	C200.068359,76.413658 200.277267,75.874008 200.736450,75.176903 
z"/>
<path fill="#21CDF9" opacity="1.000000" stroke="none" 
	d="
M71.910049,202.916183 
	C72.080841,202.351105 72.326553,201.846252 72.849380,201.214905 
	C73.126511,201.088425 73.179810,201.125687 73.117691,201.405914 
	C72.750183,202.154419 72.444778,202.622696 72.139381,203.090958 
	C72.139381,203.090958 71.984970,202.976410 71.910049,202.916183 
z"/>
<path fill="#51BCF2" opacity="1.000000" stroke="none" 
	d="
M168.386536,103.599930 
	C168.200653,103.988121 167.667816,104.439095 166.739868,104.863052 
	C166.909698,104.444931 167.474655,104.053825 168.386536,103.599930 
z"/>
<path fill="#54B5F1" opacity="1.000000" stroke="none" 
	d="
M122.694099,48.041840 
	C122.710350,48.491432 122.453239,49.052422 121.866943,49.631790 
	C121.832085,49.151192 122.126419,48.652214 122.694099,48.041840 
z"/>
<path fill="#21CDF9" opacity="1.000000" stroke="none" 
	d="
M73.099045,201.071045 
	C73.193336,200.741959 73.315102,200.430252 73.717018,200.057251 
	C73.997177,199.995941 74.091141,200.089035 73.981285,200.296051 
	C73.685493,200.760147 73.454956,200.967697 73.179810,201.125687 
	C73.179810,201.125687 73.126511,201.088425 73.099045,201.071045 
z"/>
<path fill="#21CDF9" opacity="1.000000" stroke="none" 
	d="
M73.950539,199.949036 
	C74.048622,199.601212 74.193352,199.300293 74.578995,198.906540 
	C74.819901,198.813705 74.966820,198.972290 74.900970,199.247437 
	C74.631981,199.770294 74.383987,199.959106 74.091141,200.089035 
	C74.091141,200.089035 73.997177,199.995941 73.950539,199.949036 
z"/>
<path fill="#54B5F1" opacity="1.000000" stroke="none" 
	d="
M142.042953,47.663322 
	C141.825867,47.743587 141.541840,47.562263 141.158707,47.142418 
	C141.365067,47.069839 141.670547,47.235786 142.042953,47.663322 
z"/>
<path fill="#21CDF9" opacity="1.000000" stroke="none" 
	d="
M77.850159,195.854187 
	C77.956596,195.500748 78.152740,195.230225 78.600174,194.900360 
	C78.851456,194.841049 78.983856,194.993881 78.909019,195.256836 
	C78.630852,195.752869 78.394371,195.945206 78.124748,196.096786 
	C78.124748,196.096786 77.939865,195.937088 77.850159,195.854187 
z"/>
<path fill="#51BCF2" opacity="1.000000" stroke="none" 
	d="
M169.788300,102.888672 
	C169.803024,103.144638 169.521881,103.413216 168.940125,103.666382 
	C168.923828,103.401077 169.208130,103.151176 169.788300,102.888672 
z"/>
<path fill="#51BCF2" opacity="1.000000" stroke="none" 
	d="
M202.711609,73.035950 
	C202.773590,73.237465 202.582932,73.503654 202.160187,73.864182 
	C202.105042,73.672562 202.281998,73.386597 202.711609,73.035950 
z"/>
<path fill="#51BCF2" opacity="1.000000" stroke="none" 
	d="
M201.706909,74.005676 
	C201.888428,74.266571 201.719955,74.542992 201.231201,74.869560 
	C201.159973,74.681412 201.308624,74.381912 201.706909,74.005676 
z"/>
<path fill="#4AB7F1" opacity="1.000000" stroke="none" 
	d="
M121.530899,80.842834 
	C121.652496,81.049843 121.532738,81.373352 121.177139,81.821297 
	C121.057381,81.616928 121.173462,81.288132 121.530899,80.842834 
z"/>
<path fill="#51BCF2" opacity="1.000000" stroke="none" 
	d="
M198.685364,80.618561 
	C198.842819,80.763336 198.800827,81.104729 198.629425,81.668610 
	C198.495300,81.532463 198.490601,81.173820 198.685364,80.618561 
z"/>
<path fill="#4AB7F1" opacity="1.000000" stroke="none" 
	d="
M102.198807,106.470108 
	C101.973106,106.612991 101.631729,106.501175 101.171249,106.134766 
	C101.395805,105.991920 101.739471,106.103661 102.198807,106.470108 
z"/>
<path fill="#4AB7F1" opacity="1.000000" stroke="none" 
	d="
M104.708435,106.014282 
	C104.753014,106.215065 104.540779,106.501884 104.064682,106.864243 
	C104.017761,106.659958 104.234695,106.380135 104.708435,106.014282 
z"/>
<path fill="#030303" opacity="1.000000" stroke="none" 
	d="
M662.208008,142.165161 
	C668.023621,144.791565 670.725342,148.877136 670.194092,154.978226 
	C669.907593,158.267975 670.563721,161.836670 669.507690,164.824631 
	C666.648682,172.913345 655.841797,174.813110 649.768860,168.642563 
	C645.596802,164.403549 644.354980,154.824219 647.210327,148.907257 
	C649.858887,143.419067 654.084961,141.428894 662.208008,142.165161 
z"/>
<path fill="#080808" opacity="1.000000" stroke="none" 
	d="
M404.960938,140.819763 
	C413.227142,141.754456 416.473450,144.995163 416.966492,152.658173 
	C408.735748,152.658173 400.516754,152.658173 392.295715,152.658173 
	C392.610657,145.330307 396.829559,141.236008 404.960938,140.819763 
z"/>
<path fill="#080809" opacity="1.000000" stroke="none" 
	d="
M761.414795,140.867813 
	C771.445862,140.923599 775.228516,143.993622 776.001892,152.632751 
	C767.764709,152.632751 759.546204,152.632751 751.325012,152.632751 
	C751.414307,146.579102 754.509644,142.794876 761.414795,140.867813 
z"/>
<path fill="#34C6FF" opacity="1.000000" stroke="none" 
	d="
M69.014023,118.987610 
	C68.674156,117.574577 68.334290,116.161545 67.982819,114.381950 
	C69.600250,114.920242 71.388947,115.628311 72.814011,116.784554 
	C74.279190,117.973343 75.389496,119.599525 77.269020,121.730316 
	C80.679253,114.681564 85.627434,116.498299 91.024025,117.636459 
	C95.469208,118.573952 100.272636,117.706268 104.909073,117.870659 
	C110.595123,118.072258 116.566055,117.508965 121.893143,119.062172 
	C133.225677,122.366364 144.551300,121.054733 155.859222,120.400955 
	C162.706497,120.005081 169.452118,117.445671 176.280029,117.268402 
	C180.567444,117.157097 184.922714,119.659195 189.623169,120.993790 
	C189.666275,123.064011 189.333771,125.129242 189.001862,127.597084 
	C188.029922,131.083405 187.057419,134.167114 185.640091,137.625244 
	C183.500854,137.530533 180.910049,137.591904 180.264954,136.501801 
	C177.239716,131.389832 173.109863,131.561081 168.290817,132.943756 
	C166.088776,133.575546 163.733292,133.933304 161.442871,133.955933 
	C138.396469,134.183640 115.405746,133.631653 92.662537,129.219299 
	C90.411598,128.782608 86.764503,128.895813 85.698540,130.262070 
	C82.675232,134.137024 79.746979,134.272720 76.002136,131.999649 
	C74.557945,129.036926 73.113754,126.074203 71.315392,123.058365 
	C70.649429,122.540115 70.337631,122.074966 70.230881,121.141876 
	C69.961967,120.111824 69.487991,119.549721 69.014023,118.987610 
z"/>
<path fill="#3EBEFD" opacity="1.000000" stroke="none" 
	d="
M63.328690,103.194901 
	C62.896339,102.106186 62.725990,101.255936 62.323357,100.174530 
	C61.890633,98.312035 61.717220,96.676773 61.481457,95.050560 
	C61.281834,93.673607 61.010067,92.307114 60.770226,90.935997 
	C62.488529,90.783157 64.486565,89.982674 65.879074,90.584122 
	C74.025818,94.102890 82.039017,97.932297 90.078957,101.696030 
	C92.610977,102.881348 95.086456,104.187439 97.797028,105.712738 
	C97.065979,106.648224 96.028381,107.977928 95.201851,107.857628 
	C91.017677,107.248581 86.913429,106.095856 82.731026,105.467506 
	C79.928413,105.046432 77.041214,105.201797 74.193672,105.062279 
	C71.864578,104.948158 69.538162,104.779419 66.899757,104.615601 
	C66.770088,105.880188 66.629478,107.251526 66.233902,108.820381 
	C65.978928,109.017891 65.521065,108.991074 65.293991,108.963104 
	C64.574844,107.101204 64.082764,105.267281 63.328690,103.194901 
z"/>
<path fill="#16DBFF" opacity="1.000000" stroke="none" 
	d="
M78.049515,196.420639 
	C78.394371,195.945206 78.630852,195.752869 78.971344,195.336456 
	C80.047729,194.695038 80.986954,194.237000 82.030952,193.463455 
	C83.692078,192.694824 85.283432,192.335190 86.797211,191.768356 
	C89.599358,190.719070 91.882217,190.344772 94.300468,193.145691 
	C95.686623,194.751190 98.502525,195.746033 100.743553,195.882004 
	C110.565140,196.477936 120.410393,196.845795 130.249969,196.922409 
	C136.184723,196.968628 142.152252,195.805649 148.056274,196.115417 
	C157.754135,196.624252 167.411499,197.897186 177.088913,198.816818 
	C177.862457,198.890335 178.658936,198.722778 179.287109,198.678391 
	C180.706009,196.797729 176.801300,192.395859 182.690857,193.176147 
	C186.091751,199.454285 189.481735,205.506348 191.992325,211.903519 
	C194.656235,218.691513 192.720139,221.077377 185.425735,220.983429 
	C163.137161,220.696335 140.846039,220.474762 118.563377,219.925079 
	C109.972000,219.713150 101.409325,218.403931 92.816902,218.142578 
	C87.962120,217.994888 83.049950,218.793518 78.207352,219.476105 
	C74.142052,220.049133 72.280457,218.771057 71.983040,214.726364 
	C71.789696,212.097046 71.414062,209.481125 71.069855,206.454834 
	C71.364929,205.283035 71.710243,204.515640 72.097473,203.419586 
	C72.444778,202.622696 72.750183,202.154419 73.117691,201.405914 
	C73.454956,200.967697 73.685493,200.760147 73.981285,200.296051 
	C74.383987,199.959106 74.631981,199.770294 74.970215,199.330429 
	C76.061638,198.340347 77.017960,197.542419 78.049515,196.420639 
z"/>
<path fill="#30CBFF" opacity="1.000000" stroke="none" 
	d="
M76.010056,132.405212 
	C79.746979,134.272720 82.675232,134.137024 85.698540,130.262070 
	C86.764503,128.895813 90.411598,128.782608 92.662537,129.219299 
	C115.405746,133.631653 138.396469,134.183640 161.442871,133.955933 
	C163.733292,133.933304 166.088776,133.575546 168.290817,132.943756 
	C173.109863,131.561081 177.239716,131.389832 180.264954,136.501801 
	C180.910049,137.591904 183.500854,137.530533 185.596741,137.999512 
	C185.407288,140.571365 184.862991,143.155090 184.217422,145.713257 
	C181.459503,156.641937 181.447769,156.746887 171.214325,156.668823 
	C151.120483,156.515564 131.027847,156.209824 110.934280,156.009735 
	C104.034470,155.941025 97.133362,155.988556 90.232895,156.002945 
	C84.559013,156.014771 81.334206,153.643494 79.892838,148.188568 
	C78.542496,143.078156 77.305084,137.937912 76.010056,132.405212 
z"/>
<path fill="#26CBFB" opacity="1.000000" stroke="none" 
	d="
M89.940247,168.964294 
	C116.013016,168.945892 142.126419,168.930008 168.239243,169.046890 
	C170.726944,169.058014 174.387115,167.509598 174.921814,172.001984 
	C175.276947,174.985916 171.261871,179.139908 167.811005,178.917038 
	C163.415283,178.633148 159.086807,177.372726 154.690323,177.021362 
	C147.823074,176.472534 140.925400,176.147720 134.036453,176.062088 
	C122.062523,175.913208 110.083626,176.132782 98.110847,175.942978 
	C94.902985,175.892136 91.709755,174.918549 87.959335,174.273972 
	C88.835693,172.178970 89.371521,170.898026 89.916306,169.261658 
	C89.925247,168.906235 89.980728,169.003525 89.940247,168.964294 
z"/>
<path fill="#39D0FA" opacity="1.000000" stroke="none" 
	d="
M69.032089,119.286255 
	C69.487991,119.549721 69.961967,120.111824 70.208115,120.848587 
	C69.670242,120.543800 69.360199,120.064346 69.032089,119.286255 
z"/>
</svg>